<svg viewBox="0 0 1265.7386474609375 400" xmlns="http://www.w3.org/2000/svg"><g><g><g><g><g><line x1="58" y1="355.92957021859326" x2="53" y2="355.92957021859326" style="visibility: inherit;" fill="rgb(0, 0, 0)" stroke="rgb(204, 204, 204)" stroke-width="1px"></line><line x1="58" y1="303.66263701447446" x2="53" y2="303.66263701447446" style="visibility: inherit;" fill="rgb(0, 0, 0)" stroke="rgb(204, 204, 204)" stroke-width="1px"></line><line x1="58" y1="251.39570381035554" x2="53" y2="251.39570381035554" style="visibility: inherit;" fill="rgb(0, 0, 0)" stroke="rgb(204, 204, 204)" stroke-width="1px"></line><line x1="58" y1="199.1287706062366" x2="53" y2="199.1287706062366" style="visibility: inherit;" fill="rgb(0, 0, 0)" stroke="rgb(204, 204, 204)" stroke-width="1px"></line><line x1="58" y1="146.8618374021178" x2="53" y2="146.8618374021178" style="visibility: inherit;" fill="rgb(0, 0, 0)" stroke="rgb(204, 204, 204)" stroke-width="1px"></line><line x1="58" y1="94.59490419799886" x2="53" y2="94.59490419799886" style="visibility: inherit;" fill="rgb(0, 0, 0)" stroke="rgb(204, 204, 204)" stroke-width="1px"></line><line x1="58" y1="42.327970993879944" x2="53" y2="42.327970993879944" style="visibility: inherit;" fill="rgb(0, 0, 0)" stroke="rgb(204, 204, 204)" stroke-width="1px"></line></g><g transform="translate(48, 0)"><text x="0" y="355.92957021859326" dx="0em" dy="0.3em" style="text-anchor: end; visibility: inherit; font-family: &quot;Helvetica Neue&quot;, sans-serif; font-size: 12px; font-weight: 200;" fill="rgb(50, 49, 63)" stroke="none" stroke-width="1px">0.4</text><text x="0" y="303.66263701447446" dx="0em" dy="0.3em" style="text-anchor: end; visibility: inherit; font-family: &quot;Helvetica Neue&quot;, sans-serif; font-size: 12px; font-weight: 200;" fill="rgb(50, 49, 63)" stroke="none" stroke-width="1px">0.42</text><text x="0" y="251.39570381035554" dx="0em" dy="0.3em" style="text-anchor: end; visibility: inherit; font-family: &quot;Helvetica Neue&quot;, sans-serif; font-size: 12px; font-weight: 200;" fill="rgb(50, 49, 63)" stroke="none" stroke-width="1px">0.44</text><text x="0" y="199.1287706062366" dx="0em" dy="0.3em" style="text-anchor: end; visibility: inherit; font-family: &quot;Helvetica Neue&quot;, sans-serif; font-size: 12px; font-weight: 200;" fill="rgb(50, 49, 63)" stroke="none" stroke-width="1px">0.46</text><text x="0" y="146.8618374021178" dx="0em" dy="0.3em" style="text-anchor: end; visibility: inherit; font-family: &quot;Helvetica Neue&quot;, sans-serif; font-size: 12px; font-weight: 200;" fill="rgb(50, 49, 63)" stroke="none" stroke-width="1px">0.48</text><text x="0" y="94.59490419799886" dx="0em" dy="0.3em" style="text-anchor: end; visibility: inherit; font-family: &quot;Helvetica Neue&quot;, sans-serif; font-size: 12px; font-weight: 200;" fill="rgb(50, 49, 63)" stroke="none" stroke-width="1px">0.5</text><text x="0" y="42.327970993879944" dx="0em" dy="0.3em" style="text-anchor: end; visibility: inherit; font-family: &quot;Helvetica Neue&quot;, sans-serif; font-size: 12px; font-weight: 200;" fill="rgb(50, 49, 63)" stroke="none" stroke-width="1px">0.52</text></g><line x1="58" y1="0" x2="58" y2="378" fill="rgb(0, 0, 0)" stroke="rgb(204, 204, 204)" stroke-width="1px"></line></g></g><g transform="translate(58, 0)" clip-path="url(#clip_0)"><clipPath id="clip_0"><rect width="1207" height="377"></rect></clipPath><g><g><g><line x1="54.21604001285432" y1="0" x2="54.21604001285432" y2="378" fill="rgb(0, 0, 0)" stroke="rgb(60, 60, 60)" stroke-width="1px" opacity="0.25"></line><line x1="187.9034530543999" y1="0" x2="187.9034530543999" y2="378" fill="rgb(0, 0, 0)" stroke="rgb(60, 60, 60)" stroke-width="1px" opacity="0.25"></line><line x1="321.5908660959455" y1="0" x2="321.5908660959455" y2="378" fill="rgb(0, 0, 0)" stroke="rgb(60, 60, 60)" stroke-width="1px" opacity="0.25"></line><line x1="455.2782791374911" y1="0" x2="455.2782791374911" y2="378" fill="rgb(0, 0, 0)" stroke="rgb(60, 60, 60)" stroke-width="1px" opacity="0.25"></line><line x1="588.9656921790366" y1="0" x2="588.9656921790366" y2="378" fill="rgb(0, 0, 0)" stroke="rgb(60, 60, 60)" stroke-width="1px" opacity="0.25"></line><line x1="722.6531052205823" y1="0" x2="722.6531052205823" y2="378" fill="rgb(0, 0, 0)" stroke="rgb(60, 60, 60)" stroke-width="1px" opacity="0.25"></line><line x1="856.340518262128" y1="0" x2="856.340518262128" y2="378" fill="rgb(0, 0, 0)" stroke="rgb(60, 60, 60)" stroke-width="1px" opacity="0.25"></line><line x1="990.0279313036737" y1="0" x2="990.0279313036737" y2="378" fill="rgb(0, 0, 0)" stroke="rgb(60, 60, 60)" stroke-width="1px" opacity="0.25"></line><line x1="1123.7153443452191" y1="0" x2="1123.7153443452191" y2="378" fill="rgb(0, 0, 0)" stroke="rgb(60, 60, 60)" stroke-width="1px" opacity="0.25"></line></g><g><line x1="0" y1="355.92957021859326" x2="1207.74" y2="355.92957021859326" fill="rgb(0, 0, 0)" stroke="rgb(60, 60, 60)" stroke-width="1px" opacity="0.25"></line><line x1="0" y1="303.66263701447446" x2="1207.74" y2="303.66263701447446" fill="rgb(0, 0, 0)" stroke="rgb(60, 60, 60)" stroke-width="1px" opacity="0.25"></line><line x1="0" y1="251.39570381035554" x2="1207.74" y2="251.39570381035554" fill="rgb(0, 0, 0)" stroke="rgb(60, 60, 60)" stroke-width="1px" opacity="0.25"></line><line x1="0" y1="199.1287706062366" x2="1207.74" y2="199.1287706062366" fill="rgb(0, 0, 0)" stroke="rgb(60, 60, 60)" stroke-width="1px" opacity="0.25"></line><line x1="0" y1="146.8618374021178" x2="1207.74" y2="146.8618374021178" fill="rgb(0, 0, 0)" stroke="rgb(60, 60, 60)" stroke-width="1px" opacity="0.25"></line><line x1="0" y1="94.59490419799886" x2="1207.74" y2="94.59490419799886" fill="rgb(0, 0, 0)" stroke="rgb(60, 60, 60)" stroke-width="1px" opacity="0.25"></line><line x1="0" y1="42.327970993879944" x2="1207.74" y2="42.327970993879944" fill="rgb(0, 0, 0)" stroke="rgb(60, 60, 60)" stroke-width="1px" opacity="0.25"></line></g></g></g><g><g><line x1="0" y1="1401.268234300971" x2="1207.74" y2="1401.268234300971" fill="rgb(0, 0, 0)" stroke="rgb(153, 153, 153)" stroke-width="1.5px"></line></g></g><g><g><line x1="54.21604001285432" y1="0" x2="54.21604001285432" y2="378" fill="rgb(0, 0, 0)" stroke="rgb(153, 153, 153)" stroke-width="1.5px"></line></g></g><g><g><g><g><g><path stroke="rgb(255, 112, 67)" stroke-width="2px" d="M54.229408754158484,122.33571173500243L55.04490197371191,24.098149267818826L56.66251967151461,60.4788641965107L57.49138163237219,114.52136954615827L58.33361233453393,160.73985609617716L59.162474295391505,202.2655712204278L59.9913362562491,216.92741494639782L60.80682947580252,236.54044751417112L61.58221647144349,249.14650445561736L62.33086598447615,262.5345893717838L63.15972794533372,261.7187342054417L64.05543361271208,259.8453228624337L64.9645080213946,252.02454735516028L65.88695117138126,263.75983362695195L66.80939432136792,253.18372692230605L67.73183747135458,265.0574869202534L68.65428062134124,274.77029666475266L54.229408754158484,213.7902695639427L55.205326869361755,125.10208241964801L56.16787624326089,108.00791967079726L57.11705687585586,147.89133450550347L58.06623750845084,181.06079868011398L59.015418141045814,218.36185641027092L59.96459877364078,223.69336452322537L60.91377940623576,265.17380727623345L61.862960038830735,281.65065735326766L62.8121406714257,261.74719361120833L64.71050193661566,276.28330004013486L65.65968256921062,289.76699352607505L66.6088632018056,293.8968766558935L67.55804383440058,286.0037978086453L68.50722446699555,287.8977634153354L69.45640509959053,286.8100616395428L70.4055857321855,297.6821871575781L71.35476636478047,300.8644029730064L72.30394699737545,302.1530296909343L73.25312762997042,290.62947519460164L74.2023082625654,288.9821254779236L75.15148889516037,302.47209596963853L77.0498501603503,299.7426600502355L77.99903079294529,293.1902503556097L78.94821142554026,294.28807302504185L79.89739205813524,295.57030432676737L80.84657269073021,281.75238126753817L81.79575332332517,272.5779578422914L82.74493395592015,289.4822487072205L83.69411458851513,295.52592346236236L84.64329522111011,294.3250461787348L85.59247585370508,300.6344673352298L86.54165648630004,303.1447883860904L87.49083711889502,301.88112156482276L88.44001775148999,314.54793894376655L89.38919838408498,298.22760912940197L90.33837901667995,299.3182391839363L91.28755964927493,284.21040037719945L92.23674028186988,279.0593891805176L93.18592091446486,258.75593312377157L94.13510154705983,282.03313849597055L95.08428217965482,285.0629251079054L96.0334628122498,271.67426556956343L96.9692747035406,271.0343608753772L97.9184553361356,253.09961533656707L98.86763596873055,260.3151589705415L99.81681660132553,259.91357393030927L100.7659972339205,255.29374646009893L101.71517786651548,264.442463975049L102.66435849911043,245.77092483654653L104.5627197643004,268.03227125416515L105.51190039689537,263.46786103116835L106.46108102949034,263.872293517186L107.41026166208532,257.66050445482006L108.35944229468028,265.1188219455139L109.30862292727527,242.44545139031925L110.25780355987024,224.84290593524045L111.20698419246521,243.77681474538818L112.15616482506019,236.99110700499773L113.10534545765515,247.68651308680197L114.05452609025014,254.09101494625716L115.00370672284511,249.07138080358038L116.90206798803506,251.87499671883106L117.85124862063003,248.9661966586267L118.80042925322499,245.83530151918796L119.74960988581998,224.829468993659L120.69879051841495,215.3422249175485L121.64797115100993,215.41717383805764L122.58378304230074,198.02025317353494L123.53296367489573,190.57813478084486L124.4821443074907,183.69510137505864L125.43132494008566,193.56293165200287L126.38050557268063,187.34808768750105L127.3296862052756,187.29392589873962L128.2788668378706,187.6912539391473L129.22804747046555,201.1807692871318L130.17722810306054,209.22073867414457L131.1264087356555,206.88046995562746L132.0755893682505,217.57085282303507L133.02477000084545,208.8647839809812L133.97395063344044,221.33191816282869L134.9231312660354,215.336276348806L135.8723118986304,195.35740475294358L136.82149253122535,184.7910561437962L137.7706731638203,189.00743026558055L138.7198537964153,195.6291138061477L139.66903442901028,208.37539127552606L140.61821506160524,218.15390274875088L141.56739569420023,203.5632408176764L142.5165763267952,216.9322042604407L143.46575695939015,207.90896199467L144.41493759198514,202.05811967253248L145.36411822458012,191.43710375030327L146.31329885717508,189.04887362090636L147.26247948977007,194.0406947928077L148.21166012236503,191.2854396445831L149.16084075496,191.2738278247071L150.11002138755498,225.51161976683744L151.05920202014994,208.6296649712757L152.00838265274493,205.22360860328564L152.95756328533992,205.47190808590364L153.90674391793488,206.33349338901073L154.85592455052986,219.53600209487146L155.80510518312482,240.7467889039702L156.7542858157198,229.21208354741162L157.70346644831474,219.03646519140182L159.60182771350472,205.05423821353494L160.55100834609968,196.07245553942235L161.50018897869467,180.9755441472976L163.3985502438846,182.34775153253534L164.3477308764796,189.99883714627265L165.29691150907456,201.60102431083044L166.24609214166955,182.77130326722707L167.1952727742645,188.59444824969898L168.1444534068595,190.89783463081986L169.09363403945449,189.344581817218L170.04281467204942,190.72861394980987L170.9919953046444,179.21423290572085L171.94117593723936,178.67808792246288L172.89035656983435,166.8867964426086L173.8395372024293,173.4646777960575L174.7887178350243,178.0830141895123L175.7378984676193,173.8820451995063L177.63625973280924,169.3989789747297L178.58544036540417,170.99891661910272L179.53462099799916,159.49108478563053L180.48380163059414,137.91289090504307L182.3821628957841,146.62131584907306L183.33134352837905,151.75023105316814L184.28052416097404,175.39279748067085L185.229704793569,193.71966819422474L186.178885426164,204.1799189270509L187.12806605875898,190.43379560601798L188.07724669135393,191.18279084943316L189.02642732394892,160.01164570778593L189.97560795654385,152.2780195089246L190.92478858913884,153.01774513618366L191.87396922173383,160.11681350208644L192.8231498543288,151.70343878725916L193.77233048692378,146.08561607991666L194.72151111951874,142.92134567817834L195.67069175211373,141.21789793208936L196.6198723847087,151.0758222572512L197.56905301730367,172.68207520168707L199.4674142824936,151.19324280323124L200.41659491508858,145.43166944013683L201.36577554768354,127.3252811591164L202.31495618027853,139.37093671234598L203.26413681287352,132.45080013976656L204.19994870416434,166.6890449660297L205.14912933675933,160.7269509975191L206.09830996935426,143.0544714717597L207.04749060194925,138.21687721408543L207.9966712345442,157.3839414391118L208.9458518671392,153.68895719633855L209.89503249973416,149.71166816386645L210.84421313232914,145.3034001512155L211.79339376492413,135.87314040861483L212.7425743975191,128.30053845992305L213.69175503011408,131.68757307674682L214.64093566270904,138.10854595871135L215.59011629530403,130.41660098270017L216.53929692789902,132.44395635053334L217.48847756049395,140.02434830350376L218.43765819308894,150.0387489183856L221.28520009087384,157.05832100713863L225.0819226212537,163.81085188053453L226.0311032538487,173.28046596650995L226.98028388644366,164.38487939991387L227.92946451903865,159.35576038556306L228.8786451516336,168.8470814291989L229.8278257842286,174.36937701585308L231.72618704941854,176.04544997748923L232.67536768201353,163.64445685953334L233.6245483146085,150.96393240696568L234.57372894720348,166.17320337364637L235.52290957979847,178.42489705866092L237.42127084498838,172.19397551841627L238.37045147758334,165.50882922428156L239.31963211017833,174.55658044689523L240.26881274277332,162.3962653963228L241.21799337536828,168.081125025955L242.16717400796327,168.20752520370263L243.11635464055823,163.87059383466027L244.06553527315322,151.94655418326315L245.01471590574815,160.50344238040216L245.96389653834314,174.123825265149L246.91307717093812,178.31167557205637L247.86225780353308,177.2613265349999L248.81143843612807,170.49477715019495L250.70979970131802,167.6041637341616L251.658980333913,159.843739182315L252.60816096650797,150.22183145836007L253.55734159910295,158.7460963126048L254.50652223169791,154.369112325961L255.4557028642929,153.38162823272526L256.40488349688786,158.27084882629902L257.3540641294828,158.02027337695662L258.30324476207784,147.13981471863713L259.26579413597693,161.673032400241L260.2149747685719,160.1534864049422L262.0598610685452,149.5678432032456L263.00904170114023,148.7391663638936L263.91811610982273,145.09601551663818L264.84055925980937,160.86670232690676L265.76300240979606,160.0443717444339L266.6587080771744,149.5094151024315L267.5410450032486,143.34822752065L268.4634881532353,138.37758523700361L269.3993000445261,132.7215113309008L270.3351119358169,131.46428191945375L271.27092382710777,135.89189615389898L272.1933669770944,131.7475889996203L273.08907264447276,110.18888214887932L274.0248845357636,110.54714534919987L274.96069642705436,113.09079772625245L275.89650831834524,109.66974788988074L276.832320209636,112.64495340656794L277.76813210092683,119.99945377101335L278.70394399221766,133.13311457485463L279.6397558835085,145.13342636717937L280.5755677747993,156.20770940617044L281.51137966609014,144.00776428757118L282.44719155738096,144.93369777706803L283.3830034486718,148.48532303030947L284.31881533996255,157.05803610012381L285.25462723125344,153.212066554988L286.1904391225442,147.8914410000334L287.12625101383503,140.09822039190652L288.06206290512586,139.21298601793129L289.9336866877075,141.71183673622923L290.86949857899833,143.5957062164995L291.80531047028916,136.64841865834995L293.67693425287075,134.5938124467283L294.6127461441616,140.24111666221398L295.5485580354524,126.58631192199019L296.4843699267432,116.13682386597799L297.42018181803405,122.95562818238247L298.3559937093249,121.29232604215719L299.2918056006157,126.24831201526644L300.2276174919065,140.5868634157836L301.1634293831973,144.78142850558564L302.0992412744882,159.20466901204142L303.03505316577895,164.85264133705243L303.9708650570698,158.07687234308835L304.9066769483606,141.89141442245742L305.84248883965137,133.77928099859272L306.77830073094225,148.31500503700082L308.64992451352384,153.5200482116117L310.52154829610555,154.80358338205724L312.39317207868714,145.30170360531787L313.328983969978,144.48420151430008L314.278164602573,159.30911331714188L315.21397649386375,148.52534765525922L316.1497883851546,154.0732439259228L317.0856002764454,142.98441307355958L318.0214121677362,147.21110753495685L318.95722405902706,161.58714405296433L319.8930359503179,145.1372043587951L320.82884784160865,139.13002777817664L321.76465973289953,138.26869579391447L322.71384036549443,126.25683968772285L323.6630209980895,133.9084596336669L324.6122016306844,140.1098505039407L327.4463747871652,144.60410231043005L328.38218667845604,163.3866176122729L329.331367311051,154.51789963168912L330.28054794364596,139.5397007536316L331.229728576241,138.63465870533096L333.1280898414309,146.69100187346686L334.0772704740258,126.57083835743245L335.0130823653167,120.14727839623788L335.9488942566075,124.19401774760283L336.89807488920246,119.83532936149766L337.8338867804933,120.27275628146413L338.78306741308825,118.93043231783338L339.7322480456832,124.55403406789696L340.66805993697403,136.32677907948073L341.6038718282649,156.8423290457418L342.5396837195557,157.68629141430137L343.4754956108465,151.52752902657062L344.41130750213733,144.8687307091345L345.34711939342816,148.44634278954948L346.2963000260231,151.4695077799372L347.24548065861813,138.95633913463445L348.1812925499089,156.28505205501352L349.11710444119973,166.65966235181438L350.05291633249055,162.20805496295876L351.9245401150722,147.36338533713464L352.86035200636303,154.44500610887232L353.7961638976538,144.50968751394984L354.7319757889447,143.55935310717672L355.6677876802355,133.75353572966472L356.6035995715263,137.22161543756667L357.5394114628171,120.10731545416246L358.47522335410787,117.4893545670754L359.41103524539875,119.79974584743002L360.3468471366896,121.18034182854632L361.28265902798034,115.64328762303126L362.2184709192712,121.58636113760764L363.15428281056205,127.78206077980948L364.0900947018528,123.46994119998038L365.02590659314365,121.15978001133828L365.9617184844345,126.55477650798056L366.8975303757253,132.48951345922157L367.8333422670161,133.70751747508433L368.7691541583069,148.49251384358445L369.7049660495978,162.41256263022728L370.6407779408886,149.32838448860517L371.57658983217937,152.45544340068392L372.5124017234702,146.95817020423095L373.4482136147611,148.83608822705614L374.38402550605184,151.10953780017434L375.31983739734267,157.86905449703664L376.2556492886335,161.41998403267922L377.1914611799243,156.58283896020828L378.12727307121514,162.3053727395768L379.06308496250597,145.57801723656186L379.99889685379674,134.54341400455644L380.9347087450876,139.38515355272187L381.8705206363784,149.26780689479688L382.8063325276692,157.00863339183968L383.74214441896004,179.70724827940433L384.6779563102508,181.24461490305274L386.5495800928325,178.26888839630487L387.4853919841233,165.96403035843164L388.42120387541416,165.66193676021695L389.357015766705,153.23909188897778L390.29282765799576,155.01112603388307L391.2286395492866,148.94685732354972L392.16445144057747,144.645162273369L393.10026333186823,147.333763129492L394.03607522315906,141.56070446335792L394.9718871144498,156.86926380716935L395.9076990057407,152.55162275619583L396.84351089703154,158.68340061917982L397.7793227883223,155.89387508497197L398.71513467961313,157.41274132733875L399.650946570904,133.17211103706072L400.5867584621948,137.3987254979915L401.5225703534856,132.74499139809032L402.45838224477643,124.79625148257097L403.39419413606726,128.6390865664832L404.3300060273581,102.05874553583783L405.2658179186489,106.88644947738607L406.2016298099397,105.43108088389278L407.13744170123056,100.50132875183425L408.0732535925213,105.75968872881822L409.944877375103,128.4407340577071L410.8806892663938,135.20605446603003L411.8165011576846,133.39754355030303L412.75231304897545,142.95771935497163L413.6881249402662,149.08408498120053L415.5597487228479,146.05093154561243L416.4955606141387,138.74789537283033L417.4313725054295,134.0875300479917L418.3671843967203,128.24293893368127L419.3029962880112,135.09021236192285L420.238808179302,135.0360300147831L422.11043196188365,127.61870333508568L423.98205574446524,127.32378188234125L424.91786763575607,133.4669747405062L425.85367952704695,133.49936141249773L427.71193456832435,133.30670025240877L428.6076402357028,143.34294530921844L429.47660842047276,131.07866655204327L431.2011760487087,127.50652925641663L432.12361919869534,128.24619360793127L433.046062348682,123.5419976741862L433.9685054986687,120.5596937105193L434.89094864865535,114.80291057670831L435.81339179864204,132.69311407288913L436.7358349486287,141.33185042405367L437.65827809861537,125.59777784812121L438.580721248602,120.20392730568528L439.5031643985887,129.33927163799675L440.42560754857533,132.17791206782007L441.348050698562,145.08063095184923L442.2704938485487,127.76505010049718L444.11538014852204,146.60250087103088L445.96026644849536,132.4745088300038L446.882709598482,132.68614991581575L447.8051527484687,113.93042540994679L448.7275958984553,122.4518743658559L449.650039048442,122.23574724429537L450.57248219842865,129.15860479982527L451.49492534841534,124.7963800622424L452.43073723970616,128.2418628753672L453.35318038969285,114.92872210981818L455.2114354309703,120.66982001553475L456.14724732226114,118.23266305374227L457.08305921355196,122.07531485443235L458.01887110484273,115.91023272831848L458.9546829961336,128.65628544767577L459.89049488742444,144.70817098145253L460.8263067787152,146.16975901826683L461.76211867000603,149.58466449019102L462.6979305612969,135.8912045725371L463.6337424525877,150.99462861881253L464.5695543438785,150.1551286723608L465.50536623516933,150.05723445433335L456.24082851139025,132.04896130038577L457.176640402681,131.41988967822107L458.11245229397184,126.72718574642835L459.0482641852627,127.41948087838165L459.9840760765535,128.24770440288833L460.9198879678443,127.19359822375947L461.85569985913514,140.05683932453192L462.79151175042597,155.02953531094616L463.7273236417168,157.12317814101718L464.6497667917034,155.2065647612864L465.58557868299425,154.0622666740645L466.5080218329809,164.96404952938008L467.4438337242717,165.95272085646639L468.3796456155626,154.71154259864542L469.31545750685336,159.04194311172193L470.2512693981442,161.76884745663656L471.187081289435,166.58062411166682L472.12289318072584,157.45090519176588L473.05870507201666,166.99016079099025L473.9945169633075,160.91892922020878L475.85277200458495,136.41401762128083L476.7885838958758,152.6091316702851L477.72439578716654,159.13358738327625L478.6602076784574,173.5747859474261L479.58265082844406,171.31851408095042L480.50509397843075,184.6382457415692L481.4409058697216,194.9418005264709L482.37671776101234,181.5894614508282L483.3125296523032,164.20950920270383L484.24834154359405,152.89363138397698L485.1707846935807,145.1765709456126L486.1065965848715,152.31143030847272L487.02903973485815,152.19652196530785L487.96485162614897,158.7955517385837L488.90066351743985,153.05700348069124L489.8231066674265,158.30511465317238L490.75891855871726,144.78691053255233L492.6305423412989,160.06901036394444L493.56635423258973,164.3178833343056L494.5021661238806,174.08376422711086L495.4379780151714,163.3384043643485L496.360421165158,156.8501904145403L497.29623305644884,153.85086960864396L499.1678568390305,156.68037864278352L500.1036687303213,171.63484137410398L501.026111880308,171.68156826696907L501.96192377159883,172.3147303726683L502.8977356628896,171.67238718855083L503.8335475541805,160.87781145108028L504.7559907041671,147.91973196697205L505.6918025954579,144.91965965310266L506.6142457454446,154.66414496997095L507.5500576367354,146.15544997099363L508.4858695280262,131.9248996985037L510.3574933106079,119.88859001681982L511.2933052018987,129.0666712919821L512.2291170931895,128.40182084945448L513.1649289844803,130.6737641495448L514.1007408757712,145.4266195097265L515.036552767062,129.9167474892724L515.9723646583528,131.10766010891814L517.8439884409344,130.220262535403L518.7798003322252,134.8160360508293L519.715612223516,129.34601132967285L520.6380553735027,141.62823271764347L524.3545654560577,136.48593812787095L525.2903773473485,146.32646830381088L526.2261892386393,147.60872558718847L528.097813021221,134.77349359701512L529.0336249125118,118.83355684478539L529.9694368038026,120.91166516935454L530.9052486950934,141.00021013578169L531.8410605863843,140.69018736878976L532.776872477675,143.13402924205053L533.7126843689659,146.5232230730237L534.6484962602567,146.64092251360185L535.5843081515475,141.6808717891303L536.5201200428384,137.90313667407912L537.4559319341292,151.4156599593051L538.39174382542,165.01619370766917L539.3275557167108,171.31440576694L540.2633676080017,164.33920024996755L541.1991794992924,182.037056981866L542.1349913905833,172.8865573021912L543.0708032818741,162.92691122660918L544.0066151731648,172.9819772225568L544.9424270644557,162.94456705507199L545.8782389557465,162.54947470949475L546.8140508470374,165.6294280234059L548.6856746296189,175.93396067377867L549.6214865209098,155.41228802607736L550.5572984122007,156.52994069621502L551.4931103034914,177.21860033384365L552.4289221947823,173.47227843805527L553.3647340860731,167.49883585917283L554.3005459773639,168.6768038988114L555.2363578686547,162.12319460954714L556.1721697599456,154.36640486194787L557.1079816512364,157.4237929406526L558.0437935425272,147.3658680333224L558.9796054338179,136.93245415773515L559.9154173251088,156.93566422892997L560.8512292163997,159.11239317463443L561.7870411076905,155.7765560812325L562.7228529989812,168.24779532364488L563.6586648902721,171.23430711366612L564.5944767815629,162.60293181617723L565.5302886728538,154.36159102025488L566.4661005641445,152.13570998946972L568.3377243467262,159.62154975071775L569.2735362380171,160.86670106927738L570.2093481293078,179.9281050477171L571.1451600205987,176.13012853323562L572.0809719118895,185.4665586663246L573.0167838031803,184.81048459554935L573.9525956944711,162.9424696776341L574.8884075857619,143.8281284994041L575.8242194770528,150.61726218768382L576.7600313683436,160.1286204477079L577.6958432596343,148.26061331760363L578.6316551509252,158.70188933603256L579.5674670422161,160.39269515958475L580.5032789335069,166.75172075523793L582.3749027160884,163.32088969760392L583.3107146073793,157.89304442838218L584.2465264986702,161.3863081103253L585.1689696486568,164.21468557166557L586.1047815399476,143.89723299901075L587.0405934312384,157.94316551783618L587.9764053225292,165.06567292820253L588.9122172138201,150.38861585078646L589.8480291051109,135.4672571887983L590.7838409964018,154.09262815488066L591.7196528876925,155.7155273180705L592.6554647789834,169.72969408483473L593.5912766702742,171.42498445486544L594.5270885615649,163.5515360224907L595.4629004528558,160.06603745258923L596.3987123441466,165.90816906699584L598.2703361267282,161.8942967865411L599.206148018019,157.00880128570134L600.1419599093099,154.17791177974283L601.0777718006008,144.63928326535492L602.0135836918915,164.3522386006862L602.9493955831823,162.4736157387457L603.8852074744732,140.48993930573897L604.821019365764,144.32313823033158L605.7568312570548,145.7902616918876L606.6926431483456,140.4295822865224L607.6284550396365,125.96840510631498L608.5642669309273,127.76588602116186L609.500078822218,159.7353325759005L610.4358907135089,156.93647879594445L611.3717026047998,153.99171055079853L612.3075144960906,147.8049751254893L613.2433263873814,156.4348992236396L614.1791382786721,165.62552050251344L615.114950169963,168.48742028095518L616.0507620612539,173.15255542640207L617.9223858438355,163.36221875199666L618.8581977351262,148.80381731562764L619.794009626417,162.47915443378957L620.7298215177079,164.4462070391763L622.6014453002896,170.10005290240795L623.5372571915805,169.36657516971047L624.4730690828711,151.73625664678426L626.3446928654529,127.24241127691371L627.2805047567437,123.01605439926036L628.2163166480345,146.32217846647606L629.1521285393252,152.36535030144753L630.0879404306161,165.85184089801666L631.023752321907,167.90917384280667L631.9595642131977,172.8635531104736L632.8953761044886,166.16510003686452L633.8311879957795,176.779926849447L634.7669998870701,184.0480692880817L635.702811778361,182.26834675646916L636.6386236696518,169.8412233614666L637.5744355609427,158.66356791527807L638.5102474522336,152.02766198415284L639.4460593435242,175.47866188335465L640.3818712348151,163.83318384934805L643.1893069086876,155.5592566582592L644.1251187999785,154.98225054708195L645.0609306912692,146.84825882942658L645.99674258256,162.66034323255343L646.9325544738508,178.30514938403297L647.8683663651417,156.49988283897437L648.8041782564326,150.97263531448607L649.7399901477233,150.20978505604475L650.6758020390141,162.78546147433934L651.6116139303049,151.12014275723502L652.5474258215958,152.3654190257148L653.4832377128866,165.8249966449281L654.4190496041774,167.9694245681581L655.3548614954682,172.9888026125163L657.2264852780498,179.23260712577923L658.1622971693407,165.25418816351709L659.0981090606316,175.9746185893875L660.0339209519224,181.26868299641168L660.9697328432131,199.8312220346666L661.9055447345039,202.00603355824433L662.8413566257948,185.89725554456606L663.7771685170857,178.73601520305525L664.7129804083764,172.54607159556943L665.6487922996672,174.35338145082974L666.584604190958,170.61071638104625L667.5204160822489,156.64101974544806L668.4562279735397,167.70887382958324L669.3920398648305,158.45306661645236L670.3278517561214,163.92942369196982L671.2636636474122,168.46231333772874L672.1994755387029,172.6454525676188L673.1352874299938,171.80013316893303L674.0710993212846,181.52818125528012L675.0069112125755,180.7323945729676L675.9427231038662,174.1949398782136L676.878534995157,179.48119830716016L678.7501587777388,166.95721813648677L680.6217825603204,163.25614548040997L683.4292182341928,167.4885485323465L684.3650301254836,179.85321861404074L685.3008420167745,182.87476364026233L686.2366539080654,183.6230191143934L687.172465799356,161.81994776039443L688.1082776906469,148.80175158909208L689.0440895819377,176.00897905117174L689.9799014732286,187.14993058519207L690.9157133645194,182.2631184662853L691.8515252558101,185.05452471217768L692.787337147101,182.21618918947684L693.7231490383919,168.12171957944514L694.6589609296826,169.72073980396635L695.5947728209735,181.02567512458214L697.466396603555,163.47677153834564L698.4022084948459,172.03089182601065L699.3380203861367,211.00231728282193L700.2738322774276,197.49924926168336L701.2096441687185,179.85355878994548L702.1454560600091,163.8650276132947L703.0812679513,160.60763139705148L704.0170798425908,164.2550638429643L704.9528917338816,145.9235409163195L705.8887036251725,147.96788939949124L706.8245155164633,140.81569701296692L707.7603274077541,138.07968990710734L708.696139299045,132.86938763529392L710.5677630816266,143.73378474361104L711.5035749729175,154.43615380619838L712.4393868642082,157.23233359688678L713.375198755499,165.53418324801555L714.3110106467898,167.8571501091936L715.2468225380807,165.78968070763872L716.1826344293715,156.01207540229245L717.1184463206623,139.45779877091513L718.0542582119531,156.5010968021723L718.9900701032439,128.82595257365514L719.9258819945347,140.76054328360826L720.8616938858256,146.5370845146582L721.7975057771164,141.67371071993628L722.7199489271031,141.95110297630296L723.6557608183939,146.58264771919784L724.5915727096847,152.3236823878184L725.5407533422797,156.39751082983148L726.4765652335706,148.54715840708616L727.4123771248613,145.53646492297824L728.3481890161521,146.6667353831821L730.2198127987338,153.22814642644101L731.1556246900246,153.4464154599976L732.0914365813154,156.96650599989113L733.0272484726063,159.83923581852505L733.963060363897,162.927304419509L734.8988722551878,162.62678313307475L735.8346841464787,160.51080871105034L736.7704960377695,162.3291921009994L737.7063079290604,174.2563821053251L738.6421198203511,165.66605602840943L739.5779317116419,165.07734641236013L740.5137436029328,163.37102981415995L741.4495554942235,155.3257972396053L742.3853673855144,164.90915446062314L743.3211792768053,140.9290220913282L744.256991168096,152.95831752910178L745.1928030593868,151.38708184031236L746.1286149506777,153.75427729928543L747.0644268419685,170.7812618893986L748.0002387332594,176.14918611349464L748.9360506245503,174.61497890999482L749.8718625158409,173.53610124638914L750.8076744071318,182.23327293362394L751.7434862984226,169.51054423375848L752.6792981897134,169.31543295351108L753.6151100810043,177.83873261462932L754.550921972295,188.6677321711318L755.4867338635859,194.59533402658704L757.3583576461675,197.92142139985225L758.2941695374584,203.8038804235151L759.2299814287492,207.81551886476106L760.1657933200399,200.80731630752246L761.1016052113308,187.87152736868634L762.0374171026216,182.04428259363436L762.9732289939125,186.98611581390517L763.9090408852034,173.5428437509703L764.844852776494,173.85851695994506L765.7806646677849,179.17049415776873L766.7164765590757,183.5283985997067L767.6522884503665,191.5512988539686L768.5881003416574,186.52993509019421L769.5239122329482,182.60092296603432L770.459724124239,183.52233019743375L771.3955360155297,186.09283225073864L772.3313479068206,189.92706678613354L773.2671597981115,188.45108436801124L774.2029716894023,189.05855851049006L775.138783580693,191.82102288103124L776.0745954719839,184.54121087619566L777.0104073632747,188.22410973899682L777.9462192545656,190.37587235619705L778.8686624045522,193.40884783660127L779.8044742958431,192.66099117057078L780.7402861871338,199.4245974028386L781.6760980784246,205.24025581221923L782.5985412284112,203.5024329121609L783.5343531197021,198.0695851518615L784.470165010993,203.54638268727157L785.4059769022838,207.19016592368007L786.3417887935747,213.90659380409113L788.2000438348522,208.46328820987117L789.1224869848388,209.34994443810479L790.0449301348253,199.14618599923386L790.967373284812,192.88112320082143L791.8898164347987,199.09576029449303L792.8256283260895,211.01243525735208L793.7480714760762,205.33834300820348L794.6705146260629,188.0903538011014L795.5929577760495,175.6249589832638L796.5287696673404,189.35569264486358L797.451212817327,177.25371933616884L798.3736559673137,166.54683143910634L799.3094678586045,189.1006748190016L800.2319110085912,203.06704283930577L801.167722899882,202.51240799463616L802.0901660498687,202.36203094668087L803.0126091998554,212.52542502019043L803.9350523498421,187.94599853014358L804.8574954998287,189.28573991597898L805.7933073911196,203.40995754589431L806.7157505411062,199.95256539905384L807.6381936910929,204.22656323680434L808.5606368410796,210.16167932897045L809.4830799910662,209.69029967916794L810.4055231410529,218.48473528122847L811.3279662910395,218.53420985029817L812.2637781823303,212.2465526787169L813.1862213323169,213.6630132596121L814.1220332236078,211.62143796833374L815.0444763735944,217.86757416150388L816.9027314148719,227.65402301574022L817.771699599642,231.11800562390874L818.6941427496287,229.47361187122857L819.6165858996153,204.80973975407053L820.539029049602,207.9439432850569L821.4614721995887,212.50946266727706L822.3839153495753,218.48522001547963L824.2288016495487,208.1210939851463L825.1512447995353,192.15374739361866L826.073687949522,201.50128350691142L826.9961310995087,205.47673766323308L827.9185742494954,203.6909899955366L828.841017399482,203.2275334887271L829.7634605494686,212.35333647891417L830.6859036994554,215.15086170488897L832.5307899994286,206.3325721620759L833.4532331494154,207.0817986366362L834.375676299402,210.5740365001629L835.2981194493887,208.69774158396572L836.2205625993753,197.35931121059556L838.0654488993487,208.08867513214753L838.9878920493353,209.0657979825958L839.9103351993219,204.6157313634297L840.8327783493087,209.23013202231843L841.7552214992953,210.58770488860068L842.677664649282,222.72337542256273L843.6001077992685,224.48490363158237L790.4727298565584,200.7461733280642L791.4085417478492,204.111714568732L792.3443536391401,208.06947362656499L793.2801655304307,190.53073685248646L794.2159774217216,195.14050398664546L795.1517893130125,199.77694621429345L796.0876012043033,198.94204366142307L797.0234130955942,189.87992794794678L797.9592249868848,187.07251405331712L798.8950368781757,198.77488897283882L799.8308487694666,197.90534541578916L800.7666606607573,185.75282647984574L801.6891038107441,179.8200758874668L802.6249157020349,193.68536803405746L803.5607275933257,193.31610701158345L804.4965394846164,191.56329258938482L805.4323513759073,194.31501256307382L806.3681632671982,199.07663004587747L807.3039751584889,213.5233641516027L808.2397870497798,214.17881276469765L809.1755989410707,218.06442266364772L810.1114108323613,225.47312696460338L811.0472227236522,213.66836204510525L811.9830346149431,224.91959876582868L812.9188465062339,231.65476403832713L813.8546583975248,237.12674436951517L814.7904702888154,213.8652955802032L815.7262821801063,215.15598699778866L816.6620940713972,210.503832528997L817.597905962688,208.6244968349147L818.5337178539788,215.70179794697106L819.4695297452697,219.22706808974368L820.4053416365604,212.56048907296454L821.3411535278512,220.18566452399412L822.276965419142,218.6611598319691L823.2127773104329,220.6039824734297L824.1485892017238,216.02920387273974L825.0844010930144,216.03154755513708L826.0202129843053,212.70603822399883L826.9560248755962,214.11684041340553L827.891836766887,219.15836125235978L828.8276486581778,221.41272259523546L830.6992724407594,217.3345332029154L831.6350843320503,217.7224964152526L832.570896223341,211.4046548728354L833.5067081146319,211.05822079731695L835.3783318972135,224.1693312420255L836.3141437885043,228.21561021351266L837.2499556797951,220.25261949964877L838.185767571086,213.59997509195546L839.1215794623769,221.8584509170548L840.0573913536676,223.92495089612703L840.9932032449584,224.33345689876487L841.9290151362492,221.18095762318296L842.8648270275401,228.72585922685226L844.7364508101217,219.86030699213794L845.6722627014126,218.9282947012655L846.6080745927034,216.94387609966947L847.5438864839941,212.904204392961L848.479698375285,215.64257076513113L849.4155102665759,215.50267464619844L850.3513221578667,209.56517751213963L851.2871340491574,219.10955695844038L852.2229459404482,221.40182059560811L853.1587578317391,217.48351037433673L855.0303816143207,220.59585471436495L855.9661935056116,203.19456004982038L856.9020053969023,201.87487964549453L857.8378172881932,199.52779423036384L858.773629179484,201.951207850817L860.6452529620657,213.5104298031846L861.5810648533565,231.1944569400436L862.5168767446472,225.0387965118991L864.388500527229,226.7776395149721L865.3243124185198,217.52913079917099L866.2601243098106,215.2956323825537L867.1959362011013,228.7647639991668L868.1317480923922,235.86500055374802L869.067559983683,236.86751237411391L870.0033718749738,223.34550892563738L870.9391837662647,206.72910937527791L871.8749956575556,217.47153156390044L872.8108075488462,229.77197740168725L873.7466194401371,219.9492712314243L874.6824313314279,220.59919515007522L875.6182432227188,226.2714780236047L876.5540551140097,196.39438361424286L877.4898670053004,207.36834390116007L878.4256788965913,220.65035300340259L879.3614907878822,213.5416909963143L881.2331145704637,217.1731633949605L882.1689264617545,225.13491896025926L883.1047383530454,227.8787689785576L884.0405502443363,234.14146987110638L885.9121740269179,236.79058586257503L886.8479859182087,224.3909100479649L887.7837978094994,221.46568573782915L888.7196097007903,227.69205178925634L889.6554215920812,228.57461399565938L890.591233483372,224.02114301729893L891.5270453746627,226.97012285345448L892.4628572659535,226.82509580553608L893.3986691572444,227.40261530915998L894.3344810485353,227.60068048914758L895.270292939826,236.94239454096072L896.2061048311169,239.06922593897687L897.1419167224076,232.63105903373383L898.0777286136985,227.65685052973876L899.0135405049894,227.9667166931728L899.9493523962801,234.04435891577475L900.885164287571,237.46330547963623L901.8209761788618,238.129058314637L902.7567880701525,236.6140950660259L903.6925999614434,231.98794143285474L904.6284118527343,210.5854974148588L906.500035635316,220.48525936507775L907.4358475266066,226.59477860442817L909.3074713091884,214.15611419984518L910.2432832004791,223.94819598989437L911.17909509177,232.480186085029L912.1149069830609,229.0622253241764L913.0507188743516,225.8619462914535L913.9865307656424,233.829220701535L914.9223426569332,235.45373378462057L916.793966439515,234.5578596873193L917.7297783308056,237.16201194036032L918.6655902220965,233.07172826505652L919.6014021133874,232.21666823486822L920.5372140046782,242.37436699659474L921.473025895969,241.03753216296974L922.4088377872599,242.59238196217828L923.3446496785506,234.28543822955305L925.2162734611322,239.68782436155135L926.1520853524231,244.06601682733452L927.087897243714,236.85215844985632L928.0237091350047,232.16897367851533L928.9595210262955,227.44745168288745L929.8953329175863,230.7523115099958L930.8311448088772,231.5432937359846L931.7669567001681,229.06424900609943L932.7027685914588,237.45575908695852L933.6385804827496,242.66456408339565L934.5743923740405,232.8851556984869L935.5102042653313,235.9887274778417L936.4460161566221,236.46665735053273L937.3818280479129,228.55278077786403L938.3176399392038,235.9979736654117L939.2534518304946,230.08137199667505L940.1892637217853,232.05268701518497L941.1250756130762,245.4360667064506L942.0608875043671,249.1536996865443L942.9966993956579,248.54373268625488L943.9325112869486,244.23577300268536L944.8683231782394,241.67788268019254L945.8041350695303,238.3107296013865L946.7399469608212,248.66349432027025L947.6757588521119,253.01020999154457L948.6115707434028,233.069321711458L949.5473826346935,239.797991039385L950.4831945259843,232.01779025039846L951.4190064172752,227.4189552052005L952.354818308566,225.22521517782528L954.2264420911476,223.60073823579336L955.1622539824384,231.48134663343325L956.0980658737293,235.424985659979L957.0338777650202,232.0464911651575L957.969689656311,235.33848414405156L958.9055015476018,230.5919964839551L960.7771253301834,242.39638312136913L961.7129372214742,233.0240062894728L962.648749112765,234.03179381606154L963.5845610040559,235.76899023989634L964.5203728953466,226.65666252454582L967.3278085692191,228.90776851809056L968.26362046051,233.29549530591146L969.1994323518009,218.28966265138794L970.1352442430915,221.85293221140086L971.0710561343824,240.3568348484414L972.0068680256733,249.41609744398556L972.942679916964,240.59384163645078L973.8784918082549,250.5706662985292L974.8143036995458,203.05320761247776L975.7501155908365,226.6140028080622L976.6859274821273,230.6537799027219L977.6217393734181,243.7540197264539L978.557551264709,243.02046516419335L979.4933631559999,243.97445244107797L980.4291750472905,236.47487434799388L981.3649869385814,234.7166683943383L982.3007988298722,234.92012895030646L983.2366107211631,235.92730793695114L984.1724226124539,242.22682145013115L985.1082345037447,238.42092785105515L986.0440463950355,246.84205265458883L986.9798582863264,226.62828831548399L987.9156701776171,235.14017123235732L988.851482068908,244.88067053238098L989.7872939601989,240.27480225324447" style="fill: none;" fill="none"></path></g></g></g></g><g opacity="0.2"><g><g><g><path stroke="rgb(255, 112, 67)" stroke-width="2px" d="M54.229408754158484,122.33571173500243L55.04490197371191,-34.84438821249131L56.66251967151461,95.40435052805509L57.49138163237219,178.0753558373437L58.33361233453393,221.0827121358816L59.162474295391505,259.71058449471104L59.9913362562491,237.8940860640343L60.80682947580252,265.136437283097L61.58221647144349,267.73798984375003L62.33086598447615,282.41433517132253L63.15972794533372,260.5023512022402L64.05543361271208,257.0454008697208L64.9645080213946,240.3189202832174L65.88695117138126,281.3397723871615L66.80939432136792,237.33199868175626L67.73183747135458,282.8597526216825L68.65428062134124,289.33540114593177L54.229408754158484,122.33571173500243L55.205326869361755,-7.91668754412882L56.16787624326089,82.36823802170687L57.11705687585586,207.71426945630623L58.06623750845084,230.81390348668234L59.015418141045814,274.3127065611901L59.96459877364078,231.6905635358609L60.91377940623576,327.3941765805122L61.862960038830735,306.3658622025795L62.8121406714257,231.89204892562856L64.71050193661566,298.0874373671774L65.65968256921062,309.9925213345979L66.6088632018056,300.09169906809785L67.55804383440058,274.16418215520366L68.50722446699555,290.7387114485348L69.45640509959053,285.1785091057038L70.4055857321855,313.9903746558829L71.35476636478047,305.6377265593874L72.30394699737545,304.08596973459765L73.25312762997042,273.3441436283912L74.2023082625654,286.5111009181989L75.15148889516037,322.7070516320745L77.0498501603503,295.6485061802526L77.99903079294529,283.3616358268092L78.94821142554026,295.93480702786985L79.89739205813524,297.4936512784303L80.84657269073021,261.0254966846792L81.79575332332517,258.8163227068052L82.74493395592015,314.8386850019785L83.69411458851513,304.59143559450956L84.64329522111011,292.5237302533609L85.59247585370508,310.09859906975964L86.54165648630004,306.9102699623306L87.49083711889502,299.98562133293603L88.44001775148999,333.54816501209024L89.38919838408498,273.7471144079266L90.33837901667995,300.95418426573497L91.28755964927493,261.54864216711803L92.23674028186988,271.3328723854997L93.18592091446486,228.3007490386641L94.13510154705983,316.94894655426106L95.08428217965482,289.60760502580735L96.0334628122498,251.59127626205162L96.9692747035406,270.074503834098L97.9184553361356,226.19749702835256L98.86763596873055,271.13847442150274L99.81681660132553,259.3111963699609L100.7659972339205,248.3640052547834L101.71517786651548,278.16554024747415L102.66435849911043,217.76361612879268L104.5627197643004,301.42429088059293L105.51190039689537,256.621245696673L106.46108102949034,264.4789422462131L107.41026166208532,248.3428208612709L108.35944229468028,276.3062981815546L109.30862292727527,208.43539555752724L110.25780355987024,198.4390877526217L111.20698419246521,272.1776779606098L112.15616482506019,226.8125453944118L113.10534545765515,263.72962220950853L114.05452609025014,263.6977677354401L115.00370672284511,241.5419295895652L116.90206798803506,256.08042059170714L117.85124862063003,244.60299656832L118.80042925322499,241.13895881002983L119.74960988581998,193.32072020536552L120.69879051841495,201.11135880338264L121.64797115100993,215.52959721882135L122.58378304230074,171.9248721767511L123.53296367489573,179.41495719180983L124.4821443074907,173.37055126637907L125.43132494008566,208.36467706741942L126.38050557268063,178.0258217407483L127.3296862052756,187.21268321559762L128.2788668378706,188.28724599975865L129.22804747046555,221.41504230910874L130.17722810306054,221.28069275466373L131.1264087356555,203.370066877852L132.0755893682505,233.6064271241465L133.02477000084545,195.80568071790023L133.97395063344044,240.0326194356001L134.9231312660354,206.34281362777168L135.8723118986304,165.3890973591502L136.82149253122535,168.94153323007524L137.7706731638203,195.33199144825704L138.7198537964153,205.56163911699866L139.66903442901028,227.49480747959342L140.61821506160524,232.82166995858833L141.56739569420023,181.67724792106435L142.5165763267952,236.98564942458702L143.46575695939015,194.37409859601405L144.41493759198514,193.28185618932608L145.36411822458012,175.50557986695932L146.31329885717508,185.46652842681098L147.26247948977007,201.52842655065973L148.21166012236503,187.15255692224602L149.16084075496,191.25641009489314L150.11002138755498,276.868307680033L151.05920202014994,183.30673277793304L152.00838265274493,200.11452405130052L152.95756328533992,205.84435730983077L153.90674391793488,207.6258713436714L154.85592455052986,239.33976515366226L155.80510518312482,272.5629691176182L156.7542858157198,211.9100255125737L157.70346644831474,203.77303765738733L159.60182771350472,184.08089774673496L160.55100834609968,182.59978152825343L161.50018897869467,158.3301770591104L163.3985502438846,184.4060626103917L164.3477308764796,201.4754655668785L165.29691150907456,219.0043050576674L166.24609214166955,154.52672170182237L167.1952727742645,197.32916572340676L168.1444534068595,194.35291420250158L169.09363403945449,187.0147025968155L170.04281467204942,192.80466214869736L170.9919953046444,161.94266133958735L171.94117593723936,177.873870447576L172.89035656983435,149.19985922282748L173.8395372024293,183.3314998262307L174.7887178350243,185.0105187796947L175.7378984676193,167.58059171449725L177.63625973280924,162.67437963756464L178.58544036540417,173.39882308566226L179.53462099799916,142.2293370354225L180.48380163059414,105.54560008416189L182.3821628957841,159.68395326511796L183.33134352837905,159.44360385931088L184.28052416097404,210.85664712192514L185.229704793569,221.20997426455588L186.178885426164,219.87029502629005L187.12806605875898,169.81461062446854L188.07724669135393,192.30628371455614L189.02642732394892,113.25492799531486L189.97560795654385,140.67758021063273L190.92478858913884,154.12733357707222L191.87396922173383,170.7654160509408L192.8231498543288,139.08337671501837L193.77233048692378,137.6588820189029L194.72151111951874,138.1749400755711L195.67069175211373,138.662726312956L196.6198723847087,165.86270874499374L197.56905301730367,205.09145461834098L199.4674142824936,118.95999420554739L200.41659491508858,136.78930939549508L201.36577554768354,100.16569873758607L202.31495618027853,157.4394200421901L203.26413681287352,122.0705952808976L204.19994870416434,218.04641220542445L205.14912933675933,151.78381004475324L206.09830996935426,116.54575218312056L207.04749060194925,130.9604858275738L207.9966712345442,186.13453777665143L208.9458518671392,148.14648083217892L209.89503249973416,143.74573461515828L210.84421313232914,138.69099813223926L211.79339376492413,121.72775079471393L212.7425743975191,116.9416355368852L213.69175503011408,136.76812500198258L214.64093566270904,147.74000528165809L215.59011629530403,118.87868351868332L216.53929692789902,135.4849894022832L217.48847756049395,151.39493623295968L218.43765819308894,165.06034984070826L221.28520009087384,167.58767914026794L225.0819226212537,173.93964819062816L226.0311032538487,187.4848870954732L226.98028388644366,151.04149955001972L227.92946451903865,151.81208186403643L228.8786451516336,183.08406299465284L229.8278257842286,182.6528203958343L231.72618704941854,178.55955941994344L232.67536768201353,145.04296718259945L233.6245483146085,131.94314572811442L234.57372894720348,188.98710982366754L235.52290957979847,196.80243758618266L237.42127084498838,162.8475932080491L238.37045147758334,155.48110978307983L239.31963211017833,188.12820728081564L240.26881274277332,144.15579282046437L241.21799337536828,176.60841447040355L242.16717400796327,168.39712547032417L243.11635464055823,157.36519678109673L244.06553527315322,134.0604947061677L245.01471590574815,173.33877467611032L245.96389653834314,194.55439959226925L246.91307717093812,184.59345103241762L247.86225780353308,175.68580297941483L248.81143843612807,160.3449530729874L250.70979970131802,163.2682436101114L251.658980333913,148.20310235454502L252.60816096650797,135.78896987242746L253.55734159910295,171.53249359397205L254.50652223169791,147.80363634599524L255.4557028642929,151.90040209287162L256.40488349688786,165.60467971665966L257.3540641294828,157.64441020294328L258.30324476207784,130.81912673115772L259.26579413597693,183.47285892264674L260.2149747685719,157.87416741199416L262.0598610685452,133.68937840070078L263.00904170114023,147.49615110486542L263.91811610982273,139.63128924575494L264.84055925980937,184.52273254230974L265.76300240979606,158.81087587072466L266.6587080771744,133.70698013942808L267.5410450032486,134.10644614797792L268.4634881532353,130.92162181153432L269.3993000445261,124.23740047174661L270.3351119358169,129.57843780228296L271.27092382710777,142.53331750556674L272.1933669770944,125.53112826820228L273.08907264447276,77.85082187276817L274.0248845357636,111.08454014968072L274.96069642705436,116.90627629183126L275.89650831834524,104.53817313532352L276.832320209636,117.10776168159896L277.76813210092683,131.03120431768164L278.70394399221766,152.83360578061658L279.6397558835085,163.13389405566642L280.5755677747993,172.81913396465697L281.51137966609014,125.70784660967226L282.44719155738096,146.32259801131337L283.3830034486718,153.8127609101717L284.31881533996255,169.91710570484514L285.25462723125344,147.44311223728454L286.1904391225442,139.91050266760152L287.12625101383503,128.4083894797164L288.06206290512586,137.88513445696825L289.9336866877075,145.46011281367626L290.86949857899833,146.42151043690473L291.80531047028916,126.22748732112564L293.67693425287075,131.51190312929586L294.6127461441616,148.71207298544252L295.5485580354524,106.10410481165474L296.4843699267432,100.46259178195965L297.42018181803405,133.18383465698918L298.3559937093249,118.79737283181919L299.2918056006157,133.68229097493005L300.2276174919065,162.0946905165593L301.1634293831973,151.0732761402884L302.0992412744882,180.83952977172493L303.03505316577895,173.3245998245689L303.9708650570698,147.91321885214256L304.9066769483606,117.61322754151087L305.84248883965137,121.61108086279586L306.77830073094225,170.1185910946128L308.64992451352384,161.3276129735281L310.52154829610555,156.72888613772528L312.39317207868714,131.04888394020858L313.328983969978,143.25794837777332L314.278164602573,181.5464810214046L315.21397649386375,132.34969916243497L316.1497883851546,162.39508833191837L317.0856002764454,126.3511667950147L318.0214121677362,153.5511492270524L318.95722405902706,183.1511988299755L319.8930359503179,120.46229481754148L320.82884784160865,130.11926290724884L321.76465973289953,136.97669781752097L322.71384036549443,108.2390555284353L323.6630209980895,145.38588955258285L324.6122016306844,149.41193680935137L327.4463747871652,151.345480020164L328.38218667845604,191.56039056503738L329.331367311051,141.2148226608134L330.28054794364596,117.07240243654502L331.229728576241,137.27709563288005L333.1280898414309,158.7755166256707L334.0772704740258,96.3905930833809L335.0130823653167,110.51193845444612L335.9488942566075,130.2641267746504L336.89807488920246,113.29729678233986L337.8338867804933,120.92889666141394L338.78306741308825,116.9169463723872L339.7322480456832,132.98943669299223L340.66805993697403,153.9858965968565L341.6038718282649,187.615653995133L342.5396837195557,158.9522349671407L343.4754956108465,142.28938544497444L344.41130750213733,134.88053323298018L345.34711939342816,153.8127609101717L346.2963000260231,156.00425526551874L347.24548065861813,120.1865861666804L348.1812925499089,182.27812143558216L349.11710444119973,182.22157779701575L350.05291633249055,155.5306438796752L351.9245401150722,125.0963808983982L352.86035200636303,165.067437266479L353.7961638976538,129.60670962156618L354.7319757889447,142.1338514970169L355.6677876802355,119.04480966339702L356.6035995715263,142.42373499941945L357.5394114628171,94.43586547905585L358.47522335410787,113.56241323644468L359.41103524539875,123.26533276796218L360.3468471366896,123.25123580022046L361.28265902798034,107.33770631475875L362.2184709192712,130.50097140947202L363.15428281056205,137.07561024311238L364.0900947018528,117.00176183023683L365.02590659314365,117.694538228375L365.9617184844345,134.64727125294377L366.8975303757253,141.39161888608305L367.8333422670161,135.53452349887857L368.7691541583069,170.67000839633494L369.7049660495978,183.29263581019123L370.6407779408886,129.70211727617206L371.57658983217937,157.1460317688021L372.5124017234702,138.71226040955145L373.4482136147611,151.65296526129376L374.38402550605184,154.5197121598513L375.31983739734267,168.00832954233022L376.2556492886335,166.74637833614332L377.1914611799243,149.32712135150177L378.12727307121514,170.88917340862957L379.06308496250597,120.48698398203948L379.99889685379674,117.9915091565482L380.9347087450876,146.64776287497008L381.8705206363784,164.09178690790938L382.8063325276692,168.61987313740397L383.74214441896004,213.75517061075143L384.6779563102508,183.55066483852534L386.5495800928325,173.80529863618315L387.4853919841233,147.50674330162167L388.42120387541416,165.20879636289504L389.357015766705,134.6048245821191L390.29282765799576,157.66917725124097L391.2286395492866,139.85045425804958L392.16445144057747,138.19261969809804L393.10026333186823,151.36666441367646L394.03607522315906,132.90111646415707L394.9718871144498,179.8321028228866L395.9076990057407,146.0751611797355L396.84351089703154,167.88106741365596L397.7793227883223,151.70958678365986L398.71513467961313,159.6910406908887L399.650946570904,96.81116560164355L400.5867584621948,143.73864718938756L401.5225703534856,125.7643902482387L402.45838224477643,112.87314160929208L403.39419413606726,134.40333919235144L404.3300060273581,62.18823398986984L405.2658179186489,114.12800538970822L406.2016298099397,103.24802799365307L407.13744170123056,93.10670055374663L408.0732535925213,113.64722869429431L409.944877375103,162.46230205104072L410.8806892663938,145.35403507851444L411.8165011576846,130.6847771767127L412.75231304897545,157.29798306197438L413.6881249402662,158.273633420544L415.5597487228479,141.50120139223037L416.4955606141387,127.79334111365714L417.4313725054295,127.09698206073378L418.3671843967203,119.4760522622156L419.3029962880112,145.36112250428516L420.238808179302,134.95475649407356L422.11043196188365,116.49271331553967L423.98205574446524,126.88139970322433L424.91786763575607,142.6817640277535L425.85367952704695,133.54794142048505L427.71193456832435,133.01770851227545L428.6076402357028,158.39731289443304L429.47660842047276,112.68224841628063L431.2011760487087,122.14832331297657L432.12361919869534,129.35569013520313L433.046062348682,116.48570377356862L433.9685054986687,116.08623776501884L434.89094864865535,106.16773587599187L435.81339179864204,159.5284193171605L436.7358349486287,154.28995495080042L437.65827809861537,101.99666898422242L438.580721248602,112.11315149203153L439.5031643985887,143.04228813646418L440.42560754857533,136.43587271255512L441.348050698562,164.43470927789278L442.2704938485487,101.79167882346923L444.11538014852204,174.85867702683166L445.96026644849536,111.2825207684628L446.882709598482,133.0036115445337L447.8051527484687,85.79683865114339L448.7275958984553,135.2340477997198L449.650039048442,121.91155656195463L450.57248219842865,139.5428911331201L451.49492534841534,118.25304295586778L452.43073723970616,133.41008709505454L453.35318038969285,94.95901096149476L455.2114354309703,129.28146687410975L456.14724732226114,114.57692761105375L457.08305921355196,127.8392925554673L458.01887110484273,106.66260953914752L458.9546829961336,147.775364526712L459.89049488742444,168.78599928211773L460.8263067787152,148.36214107348806L461.76211867000603,154.70702269807757L462.6979305612969,115.35101469605598L463.6337424525877,173.64976468822564L464.5695543438785,148.89587875268322L465.50536623516933,149.91039312729225L456.24082851139025,105.03655156946479L457.176640402681,130.476282244974L458.11245229397184,119.68812984873955L459.0482641852627,128.45792357631177L459.9840760765535,129.49003968964814L460.9198879678443,125.61243895506641L461.85569985913514,159.3517009756905L462.79151175042597,177.48857929056763L463.7273236417168,160.2636423861233L464.6497667917034,152.33164469169014L465.58557868299425,152.3458195432316L466.5080218329809,181.31672381235367L467.4438337242717,167.43572784709562L468.3796456155626,137.84977521191433L469.31545750685336,165.537543881337L470.2512693981442,165.85920397400824L471.187081289435,173.7982890942121L472.12289318072584,143.75632681191453L473.05870507201666,181.2990441898267L473.9945169633075,151.81208186403643L475.85277200458495,99.65665022288897L476.7885838958758,176.90180274379156L477.72439578716654,168.92027095276305L478.6602076784574,195.23658379365116L479.58265082844406,167.93410628123686L480.50509397843075,204.61784323249745L481.4409058697216,210.3971327038234L482.37671776101234,161.56095283736417L483.3125296523032,138.13958083051713L484.24834154359405,135.9198146558869L485.1707846935807,133.60098028806598L486.1065965848715,163.01371935276282L487.02903973485815,152.02415945056038L487.96485162614897,168.69409639849735L488.90066351743985,144.4491810938524L489.8231066674265,166.17728141189426L490.75891855871726,124.50960435162213L492.6305423412989,182.9921601110325L493.56635423258973,170.6911927898474L494.5021661238806,188.732585566319L495.4379780151714,147.22036457020468L496.360421165158,147.1178694898281L497.29623305644884,149.35188839979944L499.1678568390305,160.92464219399275L500.1036687303213,194.0665354710846L501.026111880308,171.7516586062667L501.96192377159883,173.26447353121725L502.8977356628896,170.7088724123744L503.8335475541805,144.6859478448743L504.7559907041671,128.4826127408098L505.6918025954579,140.41955118229868L506.6142457454446,169.28087294527342L507.5500576367354,133.3924074725276L508.4858695280262,110.57907428976876L510.3574933106079,101.83412549429386L511.2933052018987,142.8337932047255L512.2291170931895,127.40454518566327L513.1649289844803,134.08167909968023L514.1007408757712,167.55590254999922L515.036552767062,106.65193945859164L515.9723646583528,132.89402903838638L517.8439884409344,128.8891661751303L518.7798003322252,141.7096963239691L519.715612223516,121.14097424793789L520.6380553735027,160.0515647995994L524.3545654560577,128.77249624321226L525.2903773473485,161.08726356772095L526.2261892386393,149.53211151225494L528.097813021221,115.52064561175524L529.0336249125118,94.92365171644082L529.9694368038026,124.02882765620822L530.9052486950934,171.1330275854222L531.8410605863843,140.2251532183017L532.776872477675,146.79979205194206L533.7126843689659,151.6070138194836L534.6484962602567,146.81747167446903L535.5843081515475,134.2407957024229L536.5201200428384,132.23653400150243L537.4559319341292,171.68444488714434L538.39174382542,185.4169943302156L539.3275557167108,180.76172385584636L540.2633676080017,153.87639197450886L541.1991794992924,208.58384207971403L542.1349913905833,159.1608077826791L543.0708032818741,147.98744211323591L544.0066151731648,188.0645762164785L544.9424270644557,147.88845180384487L545.8782389557465,161.9568361911288L546.8140508470374,170.24935799427263L548.6856746296189,191.39075964933812L549.6214865209098,124.62977905452573L550.5572984122007,158.20641970142165L551.4931103034914,208.25158979028657L552.4289221947823,167.85279559437276L553.3647340860731,158.5386719908491L554.3005459773639,170.44375595826958L555.2363578686547,152.29278067565068L556.1721697599456,142.7312202405492L557.1079816512364,162.00987505870967L558.0437935425272,132.2789806723271L558.9796054338179,121.28233334435396L559.9154173251088,186.94047933572213L560.8512292163997,162.3774865931911L561.7870411076905,150.7728004411297L562.7228529989812,186.95465418726357L563.6586648902721,175.71407479869805L564.5944767815629,149.6558688699437L565.5302886728538,141.9995798263716L566.4661005641445,148.79688844329215L568.3377243467262,170.85030939259013L569.2735362380171,162.73442804711658L570.2093481293078,208.5202110153769L571.1451600205987,170.43316376151333L572.0809719118895,199.47120386595807L573.0167838031803,183.8263734893864L573.9525956944711,130.1404473007613L574.8884075857619,115.15661673205904L575.8242194770528,160.80096272010366L576.7600313683436,174.39565783774438L577.6958432596343,130.45860262244702L578.6316551509252,174.36380336367597L579.5674670422161,162.9289038949132L580.5032789335069,176.29025914871784L582.3749027160884,158.1746431111529L583.3107146073793,149.75127652454958L584.2465264986702,166.62620363323975L585.1689696486568,168.45725176367577L586.1047815399476,113.42105414002862L587.0405934312384,179.01206429607416L587.9764053225292,175.749434043752L588.9122172138201,128.37303023466248L589.8480291051109,113.08521919581597L590.7838409964018,182.03068460400434L591.7196528876925,158.1498760628552L592.6554647789834,190.7509442349812L593.5912766702742,173.96792000991135L594.5270885615649,151.7413633739286L595.4629004528558,154.83778959773736L596.3987123441466,174.67136648860546L598.2703361267282,155.8734883658589L599.206148018019,149.68055803444173L600.1419599093099,149.93157752080478L601.0777718006008,130.33134049377276L602.0135836918915,193.92167160368302L602.9493955831823,159.65568144583477L603.8852074744732,107.5144246562287L604.821019365764,150.0729366172208L605.7568312570548,147.99094688422144L606.6926431483456,132.3885631784744L607.6284550396365,104.27663933600388L608.5642669309273,130.46210739343255L609.500078822218,207.68950240800854L610.4358907135089,152.73819812601073L611.3717026047998,149.57455818307957L612.3075144960906,138.5248719875255L613.2433263873814,169.3797853708648L614.1791382786721,179.4114524208243L615.114950169963,172.7802699486175L616.0507620612539,180.1502581445723L617.9223858438355,148.67671374038855L618.8581977351262,126.96621516107399L619.794009626417,182.9921601110325L620.7298215177079,167.39678594725652L622.6014453002896,178.5808216972556L623.5372571915805,168.26635857066432L624.4730690828711,125.29077886239514L626.3446928654529,90.50164322210799L627.2805047567437,116.67651908278043L628.2163166480345,181.28136456729973L629.1521285393252,161.4301080539047L630.0879404306161,186.0815767928702L631.023752321907,170.9951732599917L631.9595642131977,180.2951220119739L632.8953761044886,156.11742042645122L633.8311879957795,192.70216706832076L634.7669998870701,194.95028294603387L635.702811778361,179.59876295905053L636.6386236696518,151.20053826896273L637.5744355609427,141.897084745995L638.5102474522336,142.07380308746497L639.4460593435242,210.65516173215747L640.3818712348151,146.36496679833832L643.1893069086876,143.148365871626L644.1251187999785,154.11674138031594L645.0609306912692,134.64727125294377L645.99674258256,186.37846983724376L646.9325544738508,201.7723586112521L647.8683663651417,123.79198302138664L648.8041782564326,142.6817640277535L649.7399901477233,149.06550966838248L650.6758020390141,181.64897610178116L651.6116139303049,133.62216468157845L652.5474258215958,154.23333342843432L653.4832377128866,186.0143630737479L654.4190496041774,171.1860664530031L655.3548614954682,180.51786967905372L657.2264852780498,188.59831389567364L658.1622971693407,144.28655972012413L659.0981090606316,192.0552642281931L660.0339209519224,189.2097796069477L660.9697328432131,227.67503059204893L661.9055447345039,205.26825084361064L662.8413566257948,161.73408852404893L663.7771685170857,167.9941546907888L664.7129804083764,163.26115618434068L665.6487922996672,177.0643462337201L666.584604190958,164.9967187763711L667.5204160822489,135.68647479205086L668.4562279735397,184.31065495578582L669.3920398648305,144.56935579675593L670.3278517561214,172.14395930524609L671.2636636474122,175.26164780636702L672.1994755387029,178.9201614124538L673.1352874299938,170.53215407090443L674.0710993212846,196.12025338480075L675.0069112125755,179.5387145494986L675.9427231038662,164.3887578360826L676.878534995157,187.41058595058013L678.7501587777388,148.1712478804766L680.6217825603204,157.7045364962949L683.4292182341928,173.83715311025156L684.3650301254836,198.40022373658226L685.3008420167745,187.40708117959457L686.2366539080654,184.7454023255899L687.172465799356,129.115340729396L688.1082776906469,129.2744573321387L689.0440895819377,216.81982024429146L689.9799014732286,203.86135788622246L690.9157133645194,174.93290028792507L691.8515252558101,189.24163408101612L692.787337147101,177.95868590542563L693.7231490383919,146.9800151643976L694.6589609296826,172.11927014074806L695.5947728209735,197.98307810550546L697.466396603555,137.15341615899095L698.4022084948459,184.86207225750795L699.3380203861367,269.45945546803875L700.2738322774276,177.2446472299753L701.2096441687185,153.38502308233868L702.1454560600091,139.88223084831833L703.0812679513,155.7215370726866L704.0170798425908,169.72621251183375L704.9528917338816,118.42625652635229L705.8887036251725,151.034412124249L706.8245155164633,130.08740843318043L707.7603274077541,133.97567924831807L708.696139299045,125.05393422757354L710.5677630816266,160.03038040608692L711.5035749729175,170.48970740007974L712.4393868642082,161.42660328291916L713.375198755499,177.98695772470884L714.3110106467898,171.3416004009606L715.2468225380807,162.68847660530642L716.1826344293715,141.34566744427292L717.1184463206623,114.62638382384944L718.0542582119531,182.06604384905825L718.9900701032439,87.31323623087923L719.9258819945347,158.66242934853787L720.8616938858256,155.20189636123322L721.7975057771164,134.37865002785344L722.7199489271031,142.367191360853L723.6557608183939,153.52996483353994L724.5915727096847,160.93523439074897L725.5407533422797,162.50825349285088L726.4765652335706,136.7716297729681L727.4123771248613,141.02042469681646L728.3481890161521,148.36214107348806L730.2198127987338,163.07026299132923L731.1556246900246,153.7738190103326L732.0914365813154,162.24664180973159L733.0272484726063,164.14833054647576L733.963060363897,167.55940732098472L734.8988722551878,162.17600120342343L735.8346841464787,157.33684707801382L736.7704960377695,165.05676718592304L737.7063079290604,192.14716711181345L738.6421198203511,152.78056691303564L739.5779317116419,164.19428198828598L740.5137436029328,160.81155491685993L741.4495554942235,143.25794837777332L742.3853673855144,179.28419029215L743.3211792768053,104.9588235373858L744.256991168096,171.0022606857624L745.1928030593868,149.03022830712823L746.1286149506777,157.3050704877451L747.0644268419685,196.32173877456842L748.0002387332594,184.2010724496385L748.9360506245503,172.313668104745L749.8718625158409,171.9177847509804L750.8076744071318,195.2790304644758L751.7434862984226,150.42645118396047L752.6792981897134,169.02276603313965L753.6151100810043,190.62368210630692L754.550921972295,204.91123150588547L755.4867338635859,203.48673680977L757.3583576461675,202.91055245975022L758.2941695374584,212.62756895900952L759.2299814287492,213.83297652663L760.1657933200399,190.29501247166465L761.1016052113308,168.467843960432L762.0374171026216,173.3034154310564L762.9732289939125,194.39886564431174L763.9090408852034,153.37793565656793L764.844852776494,174.33202677340728L765.7806646677849,187.13845995450427L766.7164765590757,190.06525526261376L767.6522884503665,203.58564923536142L768.5881003416574,178.9978894445327L769.5239122329482,176.70740477979464L770.459724124239,184.90444104453294L771.3955360155297,189.94858533069572L772.3313479068206,195.67841858922594L773.2671597981115,186.2371107408277L774.2029716894023,189.9697697242082L775.138783580693,195.96471943684324L776.0745954719839,173.62149286894245L777.0104073632747,193.74845803319855L777.9462192545656,193.60351628199732L778.8686624045522,197.95831105720777L779.8044742958431,191.5392061715249L780.7402861871338,209.57000675124021L781.6760980784246,213.96374342628982L782.5985412284112,200.89569856207353L783.5343531197021,189.9203135114125L784.470165010993,211.7615789903869L785.4059769022838,212.65584077829274L786.3417887935747,223.98123562470786L788.2000438348522,200.29832981854125L789.1224869848388,210.67992878045516L790.0449301348253,183.84054834092782L790.967373284812,183.48352900320268L791.8898164347987,208.4177159350003L792.8256283260895,228.88744770164047L793.7480714760762,196.82720463448035L794.6705146260629,162.2183699904484L795.5929577760495,156.92686675650745L796.5287696673404,209.95179313726308L797.451212817327,159.10075937312715L798.3736559673137,150.4864995935124L799.3094678586045,222.93143988884455L800.2319110085912,224.0165948697618L801.167722899882,201.6804557276317L802.0901660498687,202.13646537474796L803.0126091998554,227.77051613045447L803.9350523498421,151.07685879507363L804.8574954998287,191.29535199473227L805.7933073911196,224.59628399076712L806.7157505411062,194.76647717879314L807.6381936910929,210.6375599934302L808.5606368410796,219.06435346721935L809.4830799910662,208.98323020446418L810.4055231410529,231.67638868431942L811.3279662910395,218.6084217039028L812.2637781823303,202.81506692134465L813.1862213323169,215.7877041309551L814.1220332236078,208.55907503141637L815.0444763735944,227.2367784512593L816.9027314148719,242.33369629709443L817.771699599642,236.3139795361617L818.6941427496287,227.00702124220845L819.6165858996153,167.8139315783333L820.539029049602,212.6452485815365L821.4614721995887,219.3577417406074L822.3839153495753,227.44885603778326L824.2288016495487,192.57490493964647L825.1512447995353,168.20272750632722L826.073687949522,215.5225876768503L826.9961310995087,211.43991889771567L827.9185742494954,201.01236849399157L828.841017399482,202.53234872851257L829.7634605494686,226.04204096419474L830.6859036994554,219.34714954385115L832.5307899994286,193.1051378478561L833.4532331494154,208.20563834847638L834.375676299402,215.81239329545312L835.2981194493887,205.8832992096699L836.2205625993753,180.3516656505403L838.0654488993487,224.18272101447556L838.9878920493353,210.5314822582684L839.9103351993219,197.94063143468082L840.8327783493087,216.15173301065133L841.7552214992953,212.62406418802402L842.677664649282,240.92688122350592L843.6001077992685,227.127195945112L790.4727298565584,165.13807787278716L791.4085417478492,209.16002642973385L792.3443536391401,214.0061122133148L793.2801655304307,164.22263169136883L794.2159774217216,202.05515468788386L795.1517893130125,206.73160955576554L796.0876012043033,197.68968983211744L797.0234130955942,176.28675437773234L797.9592249868848,182.8613932113727L798.8950368781757,216.3284513521213L799.8308487694666,196.60103008021468L800.7666606607573,167.5240480759308L801.6891038107441,170.92094999889832L802.6249157020349,214.48330625394354L803.5607275933257,192.7622154778727L804.4965394846164,188.93407095608666L805.4323513759073,198.44259252360723L806.3681632671982,206.2190562700829L807.3039751584889,235.1934653101905L808.2397870497798,215.16198568433992L809.1755989410707,223.89283751207304L810.1114108323613,236.58618341603722L811.0472227236522,195.9612146658577L811.9830346149431,241.79645384691375L812.9188465062339,241.75751194707462L813.8546583975248,245.3347148662973L814.7904702888154,178.973122396235L815.7262821801063,217.09202412416698L816.6620940713972,203.52560082580948L817.597905962688,205.80549329379133L818.5337178539788,226.31774961505582L819.4695297452697,224.51497330390302L820.4053416365604,202.5606205477958L821.3411535278512,231.62342770053823L822.276965419142,216.37440279393147L823.2127773104329,223.5182164356206L824.1485892017238,209.16703597170488L825.0844010930144,216.0350630787333L826.0202129843053,207.71777422729173L826.9560248755962,216.23304369751543L827.891836766887,226.72064251079146L828.8276486581778,224.79426460954926L830.6992724407594,211.2172491144355L831.6350843320503,218.30444123375855L832.570896223341,201.92789255920957L833.5067081146319,210.53856968403912L835.3783318972135,243.83599690908846L836.3141437885043,234.2850286707432L837.2499556797951,208.30813342885298L838.185767571086,203.62100848041536L839.1215794623769,234.24616465470376L840.0573913536676,227.02470086473542L840.9932032449584,224.94621590272158L841.9290151362492,216.45220870981007L842.8648270275401,240.04321163235633L844.7364508101217,206.5619786400663L845.6722627014126,217.5302762649566L846.6080745927034,213.96724819727535L847.5438864839941,206.8446968328984L848.479698375285,219.75012032338648L849.4155102665759,215.29283046779943L850.3513221578667,200.65893181105162L851.2871340491574,233.4261261278913L852.2229459404482,224.84021605135945L853.1587578317391,211.6060450424294L855.0303816143207,225.26437122440728L855.9661935056116,177.09261805300335L856.9020053969023,199.8953590390059L857.8378172881932,196.0071661076679L858.773629179484,205.5863282814967L860.6452529620657,230.84926273173625L861.5810648533565,257.720497645332L862.5168767446472,215.8053058696824L864.388500527229,229.38590401958135L865.3243124185198,203.6563677254693L866.2601243098106,211.9453847576276L867.1959362011013,248.9684614240864L868.1317480923922,246.51535538562013L869.067559983683,238.37128010466304L870.0033718749738,203.0625037529225L870.9391837662647,181.80451004973864L871.8749956575556,233.58516484683435L872.8108075488462,248.22264615836735L873.7466194401371,205.21521197602974L874.6824313314279,221.57408102805175L875.6182432227188,234.77990233389892L876.5540551140097,151.5787420002004L877.4898670053004,223.82928433153558L878.4256788965913,240.5733666567663L879.3614907878822,202.87869798568184L881.2331145704637,222.62037199292956L882.1689264617545,237.0775523082074L883.1047383530454,231.99454400600516L884.0405502443363,243.53552120992973L885.9121740269179,240.76425984977772L886.8479859182087,205.79139632604955L887.7837978094994,217.07784927262554L888.7196097007903,237.0316008663972L889.6554215920812,229.898457305264L890.591233483372,217.1909365497584L891.5270453746627,231.39359260768765L892.4628572659535,226.60755523365862L893.3986691572444,228.26889456459568L894.3344810485353,227.89777825912876L895.270292939826,250.9549656186802L896.2061048311169,242.25947303600103L897.1419167224076,222.97380867586952L898.0777286136985,220.19553777374648L899.0135405049894,228.43151593832388L899.9493523962801,243.1608222496776L900.885164287571,242.5917253254285L901.8209761788618,239.12768756713834L902.7567880701525,234.3416501931093L903.6925999614434,225.04871098309818L904.6284118527343,178.48183138786453L906.500035635316,235.3349022904062L907.4358475266066,235.75905746345404L909.3074713091884,195.49811759297077L910.2432832004791,238.63631867496815L911.17909509177,245.27817122773087L912.1149069830609,223.9352841828977L913.0507188743516,221.0615277423691L913.9865307656424,245.7801323166573L914.9223426569332,237.8905034092491L916.793966439515,233.21404854136742L917.7297783308056,241.06824031992198L918.6655902220965,226.9363027521006L919.6014021133874,230.93407818958588L920.5372140046782,257.61091513918467L921.473025895969,239.03227991253246L922.4088377872599,244.92465666099125L923.3446496785506,221.82502263061514L925.2162734611322,247.7914035595488L926.1520853524231,250.633305526009L927.087897243714,226.03137088363883L928.0237091350047,225.14419652150372L928.9595210262955,220.36516868944574L929.8953329175863,235.70960125065835L930.8311448088772,232.72976707496795L931.7669567001681,225.34568191127138L932.7027685914588,250.04302420824743L933.6385804827496,250.4777715780515L934.5743923740405,218.2160431211237L935.5102042653313,240.64408514687415L936.4460161566221,237.1835521595695L937.3818280479129,216.68196591886095L938.3176399392038,247.1657629967333L939.2534518304946,221.20646949357035L940.1892637217853,235.0096595429498L941.1250756130762,265.51113624334914L942.0608875043671,254.73014915668506L942.9966993956579,247.62878218582057L943.9325112869486,237.77383347733107L944.8683231782394,237.84104719645342L945.8041350695303,233.25999998317758L946.7399469608212,264.1926413985958L947.6757588521119,259.53028349845584L948.6115707434028,203.15798929132808L949.5473826346935,249.89099503127545L950.4831945259843,220.34748906691877L951.4190064172752,220.52070263740325L952.354818308566,221.93460513676243L954.2264420911476,221.1640228227457L955.1622539824384,243.3022592298933L956.0980658737293,241.34044419979753L957.0338777650202,226.97874942292523L957.969689656311,240.27647361239275L958.9055015476018,223.47226499381043L960.7771253301834,260.10296307749013L961.7129372214742,218.96544104162797L962.648749112765,235.54347510594462L963.5845610040559,238.37478487564854L964.5203728953466,212.9881709515199L967.3278085692191,232.28442750840765L968.26362046051,239.8770854876426L969.1994323518009,195.78091366960254L970.1352442430915,227.1978365514202L971.0710561343824,268.1126888040022L972.0068680256733,263.00499133730193L972.942679916964,227.3604579251484L973.8784918082549,265.53590329164683L974.8143036995458,131.77701958340072L975.7501155908365,261.9551956014386L976.6859274821273,236.7134455447115L977.6217393734181,263.4043794620521L978.557551264709,241.92013332080285L979.4933631559999,245.40543335640518L980.4291750472905,225.22550720836782L981.3649869385814,232.0793594638548L982.3007988298722,235.2253197842589L983.2366107211631,237.43807641691808L984.1724226124539,251.67609171990125L985.1082345037447,232.71208745244098L986.0440463950355,259.4737398598894L986.9798582863264,196.30764180682664L987.9156701776171,247.90799560766717L988.851482068908,259.4914194824164L989.7872939601989,233.3659998345397" style="fill: none;" fill="none"></path></g></g></g></g></g></g><g transform="translate(58, 378)" clip-path="url(#clip_1)"><clipPath id="clip_1"><rect width="1207" height="21"></rect></clipPath><g><g><line x1="54.21604001285432" y1="0" x2="54.21604001285432" y2="5" style="visibility: inherit;" fill="rgb(0, 0, 0)" stroke="rgb(204, 204, 204)" stroke-width="1px"></line><line x1="187.9034530543999" y1="0" x2="187.9034530543999" y2="5" style="visibility: inherit;" fill="rgb(0, 0, 0)" stroke="rgb(204, 204, 204)" stroke-width="1px"></line><line x1="321.5908660959455" y1="0" x2="321.5908660959455" y2="5" style="visibility: inherit;" fill="rgb(0, 0, 0)" stroke="rgb(204, 204, 204)" stroke-width="1px"></line><line x1="455.2782791374911" y1="0" x2="455.2782791374911" y2="5" style="visibility: inherit;" fill="rgb(0, 0, 0)" stroke="rgb(204, 204, 204)" stroke-width="1px"></line><line x1="588.9656921790366" y1="0" x2="588.9656921790366" y2="5" style="visibility: inherit;" fill="rgb(0, 0, 0)" stroke="rgb(204, 204, 204)" stroke-width="1px"></line><line x1="722.6531052205823" y1="0" x2="722.6531052205823" y2="5" style="visibility: inherit;" fill="rgb(0, 0, 0)" stroke="rgb(204, 204, 204)" stroke-width="1px"></line><line x1="856.340518262128" y1="0" x2="856.340518262128" y2="5" style="visibility: inherit;" fill="rgb(0, 0, 0)" stroke="rgb(204, 204, 204)" stroke-width="1px"></line><line x1="990.0279313036737" y1="0" x2="990.0279313036737" y2="5" style="visibility: inherit;" fill="rgb(0, 0, 0)" stroke="rgb(204, 204, 204)" stroke-width="1px"></line><line x1="1123.7153443452191" y1="0" x2="1123.7153443452191" y2="5" style="visibility: inherit;" fill="rgb(0, 0, 0)" stroke="rgb(204, 204, 204)" stroke-width="1px"></line></g><g transform="translate(0, 8)"><text x="54.21604001285432" y="0" dx="0em" dy="0.95em" style="text-anchor: middle; visibility: inherit; font-family: &quot;Helvetica Neue&quot;, sans-serif; font-size: 12px; font-weight: 200;" fill="rgb(50, 49, 63)" stroke="none" stroke-width="1px">0</text><text x="187.9034530543999" y="0" dx="0em" dy="0.95em" style="text-anchor: middle; visibility: inherit; font-family: &quot;Helvetica Neue&quot;, sans-serif; font-size: 12px; font-weight: 200;" fill="rgb(50, 49, 63)" stroke="none" stroke-width="1px">10k</text><text x="321.5908660959455" y="0" dx="0em" dy="0.95em" style="text-anchor: middle; visibility: inherit; font-family: &quot;Helvetica Neue&quot;, sans-serif; font-size: 12px; font-weight: 200;" fill="rgb(50, 49, 63)" stroke="none" stroke-width="1px">20k</text><text x="455.2782791374911" y="0" dx="0em" dy="0.95em" style="text-anchor: middle; visibility: inherit; font-family: &quot;Helvetica Neue&quot;, sans-serif; font-size: 12px; font-weight: 200;" fill="rgb(50, 49, 63)" stroke="none" stroke-width="1px">30k</text><text x="588.9656921790366" y="0" dx="0em" dy="0.95em" style="text-anchor: middle; visibility: inherit; font-family: &quot;Helvetica Neue&quot;, sans-serif; font-size: 12px; font-weight: 200;" fill="rgb(50, 49, 63)" stroke="none" stroke-width="1px">40k</text><text x="722.6531052205823" y="0" dx="0em" dy="0.95em" style="text-anchor: middle; visibility: inherit; font-family: &quot;Helvetica Neue&quot;, sans-serif; font-size: 12px; font-weight: 200;" fill="rgb(50, 49, 63)" stroke="none" stroke-width="1px">50k</text><text x="856.340518262128" y="0" dx="0em" dy="0.95em" style="text-anchor: middle; visibility: inherit; font-family: &quot;Helvetica Neue&quot;, sans-serif; font-size: 12px; font-weight: 200;" fill="rgb(50, 49, 63)" stroke="none" stroke-width="1px">60k</text><text x="990.0279313036737" y="0" dx="0em" dy="0.95em" style="text-anchor: middle; visibility: inherit; font-family: &quot;Helvetica Neue&quot;, sans-serif; font-size: 12px; font-weight: 200;" fill="rgb(50, 49, 63)" stroke="none" stroke-width="1px">70k</text><text x="1123.7153443452191" y="0" dx="0em" dy="0.95em" style="text-anchor: middle; visibility: inherit; font-family: &quot;Helvetica Neue&quot;, sans-serif; font-size: 12px; font-weight: 200;" fill="rgb(50, 49, 63)" stroke="none" stroke-width="1px">80k</text></g><line x1="0" y1="0" x2="1207.74" y2="0" fill="rgb(0, 0, 0)" stroke="rgb(204, 204, 204)" stroke-width="1px"></line></g></g></g></g></svg>