<svg viewBox="0 0 1265.7386474609375 400" xmlns="http://www.w3.org/2000/svg"><g><g><g><g><g><line x1="58" y1="348.5929004579105" x2="53" y2="348.5929004579105" style="visibility: inherit;" fill="rgb(0, 0, 0)" stroke="rgb(204, 204, 204)" stroke-width="1px"></line><line x1="58" y1="293.4418550418516" x2="53" y2="293.4418550418516" style="visibility: inherit;" fill="rgb(0, 0, 0)" stroke="rgb(204, 204, 204)" stroke-width="1px"></line><line x1="58" y1="238.29080962579266" x2="53" y2="238.29080962579266" style="visibility: inherit;" fill="rgb(0, 0, 0)" stroke="rgb(204, 204, 204)" stroke-width="1px"></line><line x1="58" y1="183.13976420973367" x2="53" y2="183.13976420973367" style="visibility: inherit;" fill="rgb(0, 0, 0)" stroke="rgb(204, 204, 204)" stroke-width="1px"></line><line x1="58" y1="127.98871879367482" x2="53" y2="127.98871879367482" style="visibility: inherit;" fill="rgb(0, 0, 0)" stroke="rgb(204, 204, 204)" stroke-width="1px"></line><line x1="58" y1="72.83767337761583" x2="53" y2="72.83767337761583" style="visibility: inherit;" fill="rgb(0, 0, 0)" stroke="rgb(204, 204, 204)" stroke-width="1px"></line><line x1="58" y1="17.686627961557008" x2="53" y2="17.686627961557008" style="visibility: inherit;" fill="rgb(0, 0, 0)" stroke="rgb(204, 204, 204)" stroke-width="1px"></line></g><g transform="translate(48, 0)"><text x="0" y="348.5929004579105" dx="0em" dy="0.3em" style="text-anchor: end; visibility: inherit; font-family: &quot;Helvetica Neue&quot;, sans-serif; font-size: 12px; font-weight: 200;" fill="rgb(50, 49, 63)" stroke="none" stroke-width="1px">0.65</text><text x="0" y="293.4418550418516" dx="0em" dy="0.3em" style="text-anchor: end; visibility: inherit; font-family: &quot;Helvetica Neue&quot;, sans-serif; font-size: 12px; font-weight: 200;" fill="rgb(50, 49, 63)" stroke="none" stroke-width="1px">0.7</text><text x="0" y="238.29080962579266" dx="0em" dy="0.3em" style="text-anchor: end; visibility: inherit; font-family: &quot;Helvetica Neue&quot;, sans-serif; font-size: 12px; font-weight: 200;" fill="rgb(50, 49, 63)" stroke="none" stroke-width="1px">0.75</text><text x="0" y="183.13976420973367" dx="0em" dy="0.3em" style="text-anchor: end; visibility: inherit; font-family: &quot;Helvetica Neue&quot;, sans-serif; font-size: 12px; font-weight: 200;" fill="rgb(50, 49, 63)" stroke="none" stroke-width="1px">0.8</text><text x="0" y="127.98871879367482" dx="0em" dy="0.3em" style="text-anchor: end; visibility: inherit; font-family: &quot;Helvetica Neue&quot;, sans-serif; font-size: 12px; font-weight: 200;" fill="rgb(50, 49, 63)" stroke="none" stroke-width="1px">0.85</text><text x="0" y="72.83767337761583" dx="0em" dy="0.3em" style="text-anchor: end; visibility: inherit; font-family: &quot;Helvetica Neue&quot;, sans-serif; font-size: 12px; font-weight: 200;" fill="rgb(50, 49, 63)" stroke="none" stroke-width="1px">0.9</text><text x="0" y="17.686627961557008" dx="0em" dy="0.3em" style="text-anchor: end; visibility: inherit; font-family: &quot;Helvetica Neue&quot;, sans-serif; font-size: 12px; font-weight: 200;" fill="rgb(50, 49, 63)" stroke="none" stroke-width="1px">0.95</text></g><line x1="58" y1="0" x2="58" y2="378" fill="rgb(0, 0, 0)" stroke="rgb(204, 204, 204)" stroke-width="1px"></line></g></g><g transform="translate(58, 0)" clip-path="url(#clip_0)"><clipPath id="clip_0"><rect width="1207" height="377"></rect></clipPath><g><g><g><line x1="52.99658298594865" y1="0" x2="52.99658298594865" y2="378" fill="rgb(0, 0, 0)" stroke="rgb(60, 60, 60)" stroke-width="1px" opacity="0.25"></line><line x1="205.7992638752389" y1="0" x2="205.7992638752389" y2="378" fill="rgb(0, 0, 0)" stroke="rgb(60, 60, 60)" stroke-width="1px" opacity="0.25"></line><line x1="358.60194476452915" y1="0" x2="358.60194476452915" y2="378" fill="rgb(0, 0, 0)" stroke="rgb(60, 60, 60)" stroke-width="1px" opacity="0.25"></line><line x1="511.4046256538193" y1="0" x2="511.4046256538193" y2="378" fill="rgb(0, 0, 0)" stroke="rgb(60, 60, 60)" stroke-width="1px" opacity="0.25"></line><line x1="664.2073065431096" y1="0" x2="664.2073065431096" y2="378" fill="rgb(0, 0, 0)" stroke="rgb(60, 60, 60)" stroke-width="1px" opacity="0.25"></line><line x1="817.0099874323998" y1="0" x2="817.0099874323998" y2="378" fill="rgb(0, 0, 0)" stroke="rgb(60, 60, 60)" stroke-width="1px" opacity="0.25"></line><line x1="969.8126683216901" y1="0" x2="969.8126683216901" y2="378" fill="rgb(0, 0, 0)" stroke="rgb(60, 60, 60)" stroke-width="1px" opacity="0.25"></line><line x1="1122.6153492109802" y1="0" x2="1122.6153492109802" y2="378" fill="rgb(0, 0, 0)" stroke="rgb(60, 60, 60)" stroke-width="1px" opacity="0.25"></line></g><g><line x1="0" y1="348.5929004579105" x2="1207.74" y2="348.5929004579105" fill="rgb(0, 0, 0)" stroke="rgb(60, 60, 60)" stroke-width="1px" opacity="0.25"></line><line x1="0" y1="293.4418550418516" x2="1207.74" y2="293.4418550418516" fill="rgb(0, 0, 0)" stroke="rgb(60, 60, 60)" stroke-width="1px" opacity="0.25"></line><line x1="0" y1="238.29080962579266" x2="1207.74" y2="238.29080962579266" fill="rgb(0, 0, 0)" stroke="rgb(60, 60, 60)" stroke-width="1px" opacity="0.25"></line><line x1="0" y1="183.13976420973367" x2="1207.74" y2="183.13976420973367" fill="rgb(0, 0, 0)" stroke="rgb(60, 60, 60)" stroke-width="1px" opacity="0.25"></line><line x1="0" y1="127.98871879367482" x2="1207.74" y2="127.98871879367482" fill="rgb(0, 0, 0)" stroke="rgb(60, 60, 60)" stroke-width="1px" opacity="0.25"></line><line x1="0" y1="72.83767337761583" x2="1207.74" y2="72.83767337761583" fill="rgb(0, 0, 0)" stroke="rgb(60, 60, 60)" stroke-width="1px" opacity="0.25"></line><line x1="0" y1="17.686627961557008" x2="1207.74" y2="17.686627961557008" fill="rgb(0, 0, 0)" stroke="rgb(60, 60, 60)" stroke-width="1px" opacity="0.25"></line></g></g></g><g><g><line x1="0" y1="1065.5564908666765" x2="1207.74" y2="1065.5564908666765" fill="rgb(0, 0, 0)" stroke="rgb(153, 153, 153)" stroke-width="1.5px"></line></g></g><g><g><line x1="52.99658298594865" y1="0" x2="52.99658298594865" y2="378" fill="rgb(0, 0, 0)" stroke="rgb(153, 153, 153)" stroke-width="1.5px"></line></g></g><g><g><g><g><g><path stroke="rgb(255, 112, 67)" stroke-width="2px" d="M53.011863254037586,4.891316238009608L53.943959607462254,23.490008306052744L55.79287204622267,20.04011020642463L56.74024866773626,37.04237188479624L57.70290555733879,64.09443410069775L58.65028217885239,77.88565392116595L59.597658800366,86.35621090311975L60.52975515379066,92.80523476475594L61.41601070294855,101.5979782548452L62.27170571592857,116.47941865430028L63.219082337442174,124.29932405418015L64.24286029940042,119.93861104003469L65.2819185294476,121.31452669081392L66.3362570275837,140.31166620661187L67.39059552571979,144.42118768659665L68.4449340238559,167.07707288256347L69.499272521992,155.72270212882813L53.011863254037586,95.3840197785359L54.1273228245294,67.77812351531554L55.22750212693229,45.97466034523046L56.31240116124625,45.235730355810915L57.39730019556021,64.450841612288L58.482199229874176,73.195179902728L59.56709826418813,75.15293933797443L60.651997298502096,96.67030683449804L61.73689633281605,111.77263586820374L62.821795367130015,113.0742117043551L64.99159343575793,141.1305296656425L66.0764924700719,157.1085436771534L67.16139150438586,161.59715117550593L68.24629053869981,158.66158105999824L69.33118957301377,153.7886779120058L70.41608860732774,159.42558889235286L71.5009876416417,186.04176327029768L72.58588667595566,178.63661355795648L73.67078571026963,177.02577314372806L74.75568474458358,189.45495245038543L75.84058377889754,200.9800610361542L76.9254828132115,215.68235221666654L79.09528088183941,215.59515124337852L80.18017991615339,213.93275775715324L81.26507895046734,220.2344029749625L82.3499779847813,220.9927690877695L83.43487701909527,229.30125962847274L84.51977605340923,228.86947795253195L85.60467508772318,236.20847298510458L86.68957412203716,248.5775547316184L87.7744731563511,243.50863130020784L88.85937219066507,261.30765440978564L89.94427122497903,266.78026124178996L91.029170259293,274.8892840938289L92.11406929360695,262.163131332844L93.19896832792092,247.11438254537805L94.28386736223487,268.8790135144402L95.36876639654884,254.26501913320945L96.4536654308628,279.4880059117054L97.53856446517676,267.0039090835868L98.62346349949071,275.15178107150945L99.70836253380467,294.3307427991238L100.79326156811864,284.20164756014304L101.86288033434367,283.020101693147L102.94777936865763,269.0205251939552L104.03267840297158,275.24161083921405L105.11757743728555,281.01522896778556L106.20247647159951,267.55562020763256L107.28737550591347,271.40032200367983L108.37227454022742,265.84409971284214L110.54207260885535,275.9370815199657L111.62697164316931,293.8286052820299L112.71187067748328,289.27905625436637L113.79676971179724,285.69237800147613L114.88166874611119,288.84384978040424L115.96656778042517,277.59266795165706L117.05146681473911,278.1446429948718L118.13636584905308,289.33940202740644L119.22126488336704,293.1905833003023L120.306163917681,306.9264350097663L121.39106295199495,310.56865066540945L122.47596198630893,301.8760736052558L124.64576005493684,298.35057269428216L125.7306590892508,301.0690936860895L126.81555812356477,296.33268143054545L127.90045715787872,298.1999501782539L128.98535619219268,281.7388697108378L130.07025522650665,290.9648222803409L131.13987399273168,280.0707285800423L132.22477302704564,284.78695257716606L133.3096720613596,288.4479951956585L134.39457109567357,274.02579352329735L135.47947012998753,276.3774775349435L136.56436916430147,269.73867569617585L137.64926819861546,264.6024347058251L138.7341672329294,275.94163004328243L139.81906626724336,284.358796684009L140.90396530155732,292.6650867368843L141.98886433587128,299.13241366561283L143.07376337018525,289.0728878487287L144.1586624044992,287.1709919291377L145.24356143881317,275.6132423305643L146.32846047312714,286.71893557001505L147.41335950744107,287.5077576453029L148.49825854175506,291.88810222265045L149.583157576069,291.0114602853298L150.66805661038296,306.37029699691806L151.75295564469693,317.68920776271113L152.83785467901092,305.79809130289766L153.92275371332485,309.8158534099806L155.00765274763882,302.98552744891776L156.09255178195278,320.1562097565644L157.17745081626674,311.8417961990125L158.26234985058068,295.84811675135074L159.34724888489464,303.1213832101083L160.43214791920863,305.63477435458776L161.5170469535226,305.50346639081386L162.60194598783653,295.8674378242575L163.6868450221505,308.5164270085975L164.77174405646446,311.3722472151423L165.8566430907784,310.82697200039706L166.94154212509238,299.57056658972715L168.02644115940635,297.37307396869494L169.1113401937203,307.4845075901359L170.19623922803424,302.35596473729646L171.2811382623482,294.78815467543984L173.45093633097616,287.5267757393069L174.53583536529013,294.13918802052524L175.62073439960406,285.5291111139307L177.790532468232,284.5297045290878L178.87543150254592,285.56104044309336L179.9603305368599,300.30716399653363L181.04522957117388,291.9225295602462L182.13012860548784,291.96548770911375L183.21502763980178,297.5907523798944L184.29992667411574,296.9574019047386L185.3848257084297,296.7862508738596L186.4697247427437,293.75521781321595L187.55462377705763,298.924178669295L188.6395228113716,312.770393413575L189.72442184568555,311.3996969755756L190.80932087999952,297.73122526747L191.89421991431345,292.81655917545373L194.0640179829414,293.1559647216992L195.14891701725537,284.98454130153505L196.2338160515693,279.312442469151L197.31871508588327,265.90971107383984L199.4885131545112,275.41608910856104L200.57341218882516,284.5519189654052L201.65831122313912,278.3570484923963L202.7432102574531,280.6961241484382L203.82810929176705,279.4875139609943L204.91300832608098,271.80164378132184L205.99790736039495,266.8487464558202L207.08280639470894,261.368198693508L208.1677054290229,267.3160670130993L209.25260446333684,283.5786812300537L210.3375034976508,289.7580294674241L211.42240253196476,279.03991222984473L212.50730156627873,269.1644946729603L213.5922006005927,271.43885017859225L214.67709963490665,265.1677932074284L215.76199866922062,279.6788447786317L216.84689770353458,276.5151327863808L219.01669577216248,272.3324713382164L220.10159480647647,266.27568589648206L221.18649384079043,265.1450591926281L222.27139287510437,258.2823506597601L223.35629190941833,253.41281118641314L224.42591067564337,275.7935104248287L225.51080970995733,287.8606893840644L226.5957087442713,277.8209571982551L227.68060777858526,277.98560549203245L228.76550681289922,279.50769849204534L229.85040584721315,277.17153874055583L230.93530488152712,287.6383975560268L232.02020391584108,280.84626931912993L233.10510295015507,286.77643413425585L234.190001984469,275.83661864730624L235.27490101878297,283.27831760447464L236.35980005309693,279.33963163506473L237.4446990874109,285.09366054493154L238.52959812172483,289.41856888519465L239.61449715603882,295.4532748553556L240.6993961903528,282.00233957282495L243.95409329329465,277.97129310282946L248.2936894305505,290.54948024048633L249.37858846486446,287.2620619678328L250.4634874991784,288.32656446623923L251.54838653349236,292.72610004066723L252.63328556780635,286.26150921820243L253.71818460212032,296.3638594729696L255.88798267074822,292.1960576099267L256.97288170506215,293.2527161190953L258.05778073937614,301.8225476446447L259.1426797736901,288.8990415027963L260.22757880800407,292.7437532029544L262.397376876632,288.29515887284117L263.48227591094593,281.15022892904483L264.5671749452599,281.65172833425845L265.65207397957386,275.9789692877215L266.73697301388785,268.5280412302848L267.8218720482018,280.6190081496127L268.9067710825158,286.1590857730666L269.9916701168297,281.24770833907615L271.07656915114364,283.697482067311L272.16146818545764,275.56771003071776L273.2463672197716,291.72835361939724L274.33126625408556,285.1388986632283L275.4161652883995,296.0417931137739L277.5859633570274,297.82789240118456L278.67086239134136,281.19876962605804L279.75576142565535,276.34752571488724L280.84066045996934,285.93014982665227L281.9255594942833,291.5496277524626L283.0104585285972,285.4780465453637L284.0953575629112,282.6508901813394L285.18025659722514,282.8570774794742L286.26515563153913,286.9982404790205L287.365334933942,286.51819931084094L288.450233968256,292.73437051875254L290.5589109645282,285.3534025921444L291.64380999884213,283.33101614275955L292.68286822888933,283.47761514582504L293.7372067270254,294.22804723004737L294.79154522516154,295.95309596207187L295.81532318711976,287.2923957881275L296.8238208809891,274.1547744578881L297.8781593791252,274.3972263793164L298.94777814535024,277.30751858890744L300.01739691157525,271.2079809728552L301.08701567780025,274.0446700839838L302.1413541759364,272.5671156671558L303.1651321378946,261.9991860508337L304.23475090411966,265.5158645129056L305.30436967034467,285.8541931771502L306.37398843656973,282.4994112724808L307.44360720279474,286.77767109344114L308.51322596901974,280.15855412620465L309.58284473524486,276.9706611730819L310.65246350146987,284.54774094374267L311.7220822676949,310.2202259708492L312.7917010339199,299.0203286522001L313.86131980014494,309.79649474714427L314.93093856636995,314.9612289916216L316.000557332595,305.0403432534614L317.07017609882007,294.36139158093886L318.1397948650451,294.29650966753854L319.2094136312701,324.2583636332398L320.2790323974951,315.78366974036305L322.4182699299452,302.1525073413518L323.4878886961702,312.56796390966883L324.5575074623953,301.45601615410834L326.6967449948453,301.41120062807346L327.76636376107035,294.76674443348486L328.8359825272954,312.12710645842276L329.9056012935204,318.54496544991986L330.9752200597454,298.40613635958243L332.04483882597043,293.1015603436307L333.1144575921955,291.0926552869578L334.18407635842055,299.2547891842312L335.25369512464556,281.6604366793641L336.3233138908706,287.70295516714225L337.3929326570956,281.3695983805623L338.46255142332063,280.2067019482664L339.53217018954575,274.975308696003L340.60178895577076,281.0046366203075L341.67140772199576,282.7734529127232L343.81064525444583,272.5659417553278L345.9498827868959,272.94381640303385L348.08912031934597,279.6168550533192L349.15873908557097,276.8724099677151L350.2436381198849,283.85742620954545L351.31325688610997,288.2435676174832L352.38287565233503,290.0141222331787L353.45249441856004,280.7529381156762L354.5221131847851,290.8005543283404L355.5917319510101,301.52211944143204L356.6613507172351,292.262396616488L357.7309694834601,280.5616249164828L358.80058824968523,290.470332637668L359.88548728399917,282.6791034465799L360.9703863183131,286.83299545463535L362.0552853526271,287.58155838189987L365.29470218748,302.3806049888847L366.36432095370503,296.31931171197084L367.44921998801897,289.72615956346533L368.534119022333,294.07788047844826L369.61901805664695,296.06349237977645L371.7888161252749,284.7543359876729L372.8737151595888,285.81337168116806L373.9433339258139,300.98192058603183L375.0129526920389,288.90132384124934L376.0978517263528,275.71033882468106L377.1674704925778,291.17060126396365L378.25236952689187,290.14472736198013L379.3372685612058,288.444276235016L380.40688732743087,282.35087160375633L381.47650609365587,277.9381282230405L382.5461248598809,285.61697076318836L383.6157436261059,280.6771572550758L384.685362392331,285.6491318683244L385.754981158556,284.6500528302819L386.83988019286994,280.9080389053009L387.92477922718393,293.3493283703028L388.99439799340894,296.8431727105204L390.06401675963394,292.1959972872095L391.133635525859,289.9412009340349L393.2728730583091,281.6610176009894L394.3424918245341,285.90225425094957L395.41211059075914,289.24190793535286L396.48172935698415,287.1243984557131L397.55134812320915,307.77325335845813L398.62096688943427,305.48740294732295L399.6905856556593,300.02683244144373L400.7602044218843,291.94946229003176L401.8298231881093,295.0699083391991L402.89944195433435,295.1226389578908L403.9690607205594,312.7935747942369L405.0386794867844,312.34337398991477L406.1082982530095,314.34753670597684L407.1779170192345,304.2782617211113L408.2475357854595,303.7759113403276L409.3171545516845,296.6772921319657L410.3867733179096,304.5092621189027L411.4563920841346,302.3957455692578L412.5260108503596,304.4737228880838L413.5956296165847,301.35513522214166L414.6652483828097,309.38081335995827L415.7348671490347,315.38139526275427L416.80448591525976,300.9270689589033L417.8741046814848,299.9044758980692L418.94372344770983,304.82177188615424L420.01334221393483,306.47715372789935L421.08296098015984,304.537858998055L422.15257974638496,306.1910419007246L423.22219851260996,303.72528169217327L424.29181727883497,292.7452541147908L425.36143604506003,292.33439070641623L426.43105481128504,285.69944084688746L427.50067357751004,285.7705561070861L428.57029234373516,296.1826848745159L429.63991110996017,296.147774514253L430.7095298761852,313.98395265854975L432.84876740863524,311.75484702740505L433.9183861748603,302.4803638156204L434.9880049410853,301.2195630633456L436.05762370731037,310.03110860805754L437.1272424735354,303.5121232659436L438.1968612397604,304.92214607355544L439.2664800059854,296.57669579441733L440.3360987722105,292.9796069148646L441.4057175384355,287.1876180732723L442.4753363046605,298.9449756674447L443.5449550708855,297.76157309171845L444.6145738371106,306.2143306161206L445.6841926033356,304.2709755536146L446.75381136956065,294.00301717508864L447.8234301357857,291.12747566777045L448.8930489020107,293.1432875860053L449.9626676682357,297.1188055047975L451.03228643446073,299.6533051945214L452.10190520068585,309.0083834829546L453.17152396691085,300.76505744319275L454.24114273313586,297.3461906146306L455.3107614993609,301.78234085521217L456.3803802655859,307.0871183005965L457.44999903181093,304.5344550818024L459.58923656426106,298.1296148085502L460.65885533048606,290.36235518383256L461.72847409671107,303.3992052193585L462.79809286293613,291.94446339368966L463.8677116291612,301.83250770382836L466.0069491616112,306.7693212712617L467.07656792783627,323.03875766374824L468.14618669406127,332.24482022150295L469.2158054602863,326.738969240001L470.2854242265114,325.0187075230119L471.3550429927364,324.8184372705275L473.4942805251864,304.1890958164381L475.6335180576365,296.49136359366133L476.70313682386154,309.59020588060093L477.7727555900866,301.473408785561L479.8967128544477,306.52401361338445L480.92049081640596,311.0761404995487L481.9137082421863,309.9051515474065L483.88486282565816,295.28051888808216L484.9392013237943,282.7914527970531L485.99353982193037,287.20235947903296L487.0478783200665,286.55472862538215L488.1022168182026,281.47136645909046L489.15655531633865,291.6523278225435L490.2108938144748,282.5104710554053L491.2652323126109,283.6506818040816L492.319570810747,300.03641148912743L493.37390930888307,305.98586002656305L494.4282478070192,302.01058720828166L495.48258630515534,286.03040070197073L496.5369248032914,296.36962335141317L498.6456017995636,299.94676891307586L500.7542787958358,294.35056322425646L501.80861729397196,302.3326718248515L502.86295579210804,295.97547466362096L503.9172942902441,291.0314702697673L504.9716327883802,297.50954530715734L506.0259712865164,293.7004448837239L507.08030978465246,294.23532090745647L508.14992855087746,291.96864814365125L509.20426704901354,285.4280829234542L511.32822431337473,281.4339224214116L512.3978430795997,288.3010782799147L513.4674618458248,286.9609461959142L514.5370806120497,290.1170140765124L515.6066993782748,291.0092769803967L516.6763181444999,278.81195184756984L517.7459369107249,293.63074425372594L518.8155556769499,287.39510813651634L519.885174443175,282.8838768303466L520.9547932094,279.47056156185073L522.0244119756251,292.6223033113064L523.09403074185,293.76150354798796L512.5048049562222,289.2722200580745L513.5744237224472,282.2837021323718L514.6440424886723,290.2276756132952L515.7136612548974,291.2731986894728L516.7832800211223,295.2680853051588L517.8528987873474,284.42330899969306L518.9225175535724,283.4568412395988L519.9921363197975,276.41097576719017L521.0617550860225,286.8066811526852L522.1160935841586,279.9921629661196L523.1857123503836,280.5337791441819L524.2400508485197,283.9589754640679L525.3096696147447,295.93240951474786L526.3792883809698,295.9874582442337L527.4489071471949,305.4715133745017L528.5185259134198,316.90526036674663L529.5881446796449,309.60357829987396L530.6577634458699,318.2625711548462L531.727382212095,312.60272934870625L532.7970009783199,297.73752686351315L534.9209582426811,304.06586727594964L535.9905770089061,305.4698262507154L537.0601957751312,314.89076283187615L538.1298145413563,308.011164672147L539.1841530394923,311.87473111934844L540.2384915376284,310.67789754784957L541.3081103038535,308.59858311920425L542.3777290700785,303.4827327798004L543.4473478363035,291.37097384896913L544.5169666025286,297.0914033442334L545.5713051006646,298.59251503097516L546.6409238668897,296.86858228362576L547.6952623650258,302.5717612993421L548.7648811312508,313.17756447712605L549.8344998974758,329.40684540121185L550.8888383956119,315.5344294825251L551.958457161837,298.09770012308246L554.097694694287,305.99410693373494L555.1673134605121,301.23256298092434L556.236932226737,308.6436382750992L557.3065509929621,309.730494909684L558.3608894910982,306.08108654173816L559.4305082573233,304.73287449727957L561.5697457897733,295.5560598951936L562.6393645559984,297.2637152092131L563.6937030541345,312.8530724619166L564.7633218203595,308.87425020486126L565.8329405865845,309.5048179154271L566.9025593528096,307.9418614771913L567.9568978509457,305.0186360938919L569.0265166171707,307.0792618917467L570.0808551153068,312.8767479460953L571.1504738815319,307.5696073967969L572.2200926477568,306.21740425635227L574.3593301802069,298.029395468923L575.428948946432,299.3886530610955L576.498567712657,300.8654199342929L577.568186478882,300.6230036722135L578.6378052451071,293.3915132567766L579.7074240113321,292.22024756825294L580.7770427775571,287.88256922822853L582.9162803100072,292.3636360563038L583.9858990762322,296.68383457555126L585.0555178424572,302.52358096998876L586.1098563405933,305.9259708612019L590.3577708693156,307.2518869680946L591.4273896355406,314.11419048179454L592.4970084017657,305.1103883597184L594.6362459342157,312.5428264645707L595.7058647004408,313.70693105159376L596.7754834666658,308.64598547224944L597.8451022328908,311.02687268101204L598.9147209991158,319.3731643288104L599.9843397653409,313.0500749447118L601.053958531566,302.7956013037253L602.123577297791,292.36824509762795L603.193196064016,305.81300254439253L604.262814830241,297.4788303662502L605.3324335964661,296.4522280798062L606.402052362691,311.51817269102156L607.4716711289161,313.69846703792615L608.5412898951411,304.60076121089946L609.6109086613662,303.3374421676648L610.6805274275913,303.4680361535412L611.7501461938162,289.39043194423084L612.8197649600413,289.20017409251506L613.8893837262663,292.55026384858076L614.9590024924913,299.04384897794L616.0286212587164,302.44467594914295L618.1678587911665,305.93411677168507L619.2374775573915,297.79735953818994L620.3070963236165,299.3950439038879L621.3767150898415,301.6032861075123L622.4463338560665,306.68488411229595L623.5159526222916,303.31501053432214L624.5855713885165,306.61326439123275L625.6551901547417,296.2373055737108L626.7248089209667,287.8812712171663L627.7944276871917,293.13865024882614L628.8640464534168,290.39042376113093L629.9336652196417,291.6316455162306L631.0032839858668,294.53489767363044L632.0729027520917,298.91933141354707L633.1425215183169,296.4738860207581L634.212140284542,295.43806488488855L635.2817590507669,306.84149518068085L636.351377816992,299.27634101786333L637.420996583217,294.27774238206024L638.490615349442,287.5111746082524L640.6298528818921,296.5246608831968L641.6994716481172,297.91588058498894L642.7690904143421,293.5223198511511L643.8387091805672,296.5918910880241L644.9083279467922,291.90498071830433L645.9779467130172,297.6827301599818L647.0475654792424,290.9398650618433L648.1171842454673,294.5996376474276L649.1868030116924,298.15671548452394L650.2564217779174,297.81975905667895L651.3260405441424,294.0100951577438L652.3956593103675,297.88535553896355L653.4652780765924,310.9642913413693L654.5348968428175,327.1783567851739L656.6741343752676,326.39648398918007L657.7437531414926,324.9784997284421L658.8133719077176,321.5568363650552L659.8677104058537,322.2024408691168L660.9373291720788,319.09631565310065L662.0069479383037,328.19885588859574L663.0765667045289,324.2791755072406L664.146185470754,322.02464383110186L665.2158042369789,325.85785119315733L666.285423003204,329.2456740778224L667.3550417694289,332.4086587612955L668.424660535654,324.672809896221L669.494279301879,325.2017110849316L670.5638980681041,329.18439758947613L671.6335168343292,320.5719761587977L672.7031356005541,331.3430458287538L674.8423731330041,319.01579710460544L675.9119918992292,314.4206917507093L676.9816106654542,315.8416025646937L678.0512294316792,308.7421919174941L679.1208481979044,309.844511162553L680.1904669641293,311.9697846519011L681.2600857303544,299.9190866537744L682.3297044965794,301.04285393700195L683.3993232628044,306.9328626835263L684.4689420290294,303.3778555915941L685.5385607952544,296.72074214214865L686.6081795614796,303.1096612751668L687.6777983277046,308.8747636209532L688.7474170939296,306.87755452402996L689.8170358601546,306.4920234463854L690.8866546263796,310.96145811528334L691.9562733926047,323.8478737295009L693.0258921588296,317.01019908347365L694.0955109250548,310.23644695651325L695.1651296912798,308.14155278322073L697.3043672237299,295.70951536185834L698.3739859899548,302.3895279387765L699.4436047561799,307.90020707719805L700.513223522405,320.5579970740541L702.652461054855,332.51862368689643L703.72207982108,324.1103702241944L704.7916985873051,334.7175021208059L706.9309361197551,334.9213273937505L708.0005548859803,322.4696748194082L709.0701736522052,331.7691188789427L710.1397924184303,327.9514600764694L711.2094111846552,330.9691034759137L712.2790299508803,318.42738754078715L713.3486487171053,309.20455472460117L714.4182674833303,315.63368827420305L715.4878862495555,307.8714723528891L716.5575050157804,312.8848101546767L717.6271237820055,309.7317541151684L718.6967425482305,308.34360738342644L719.7663613144555,315.43522129722135L720.8359800806805,312.1559510183372L721.9055988469055,319.2175148423791L722.9752176131306,319.1434108875756L726.1840739118057,303.7345128057086L727.2536926780307,310.1991399779787L728.3233114442558,297.1135324274109L729.3929302104807,309.38284584453044L730.4625489767058,319.6166825583689L731.5321677429309,306.93727205170103L732.6017865091559,317.54661286749365L733.671405275381,322.9842374396354L734.7410240416059,312.9448287367186L735.810642807831,311.8236430102346L736.880261574056,310.62754742962295L737.949880340281,319.2750001864341L739.0194991065061,316.8803188073108L740.0891178727311,319.33207377037064L742.2283554051812,317.5775898422427L743.2979741714062,321.06689136573425L744.3675929376312,316.90694955297573L745.4372117038562,313.7246837907758L746.5068304700814,316.46416526316625L747.5764492363064,303.57591007088337L748.6460680025314,304.41436507738194L749.7156867687564,298.86499038058264L750.7853055349814,305.2418245873113L751.8549243012064,295.06593969729477L752.9245430674314,306.0727718445458L753.9941618336566,301.5769563912585L755.0637805998816,297.81123960654486L756.1333993661066,296.02683153381236L757.2030181323316,307.75450954247964L758.2726368985566,305.5203111135184L759.3422556647816,309.80673702035193L760.4118744310068,305.42383186056145L761.4814931972318,305.697974003779L762.5511119634568,311.50968006416883L763.6207307296818,309.39124425755926L764.6903494959068,318.0755004136916L766.8295870283569,315.02199150350873L768.968824560807,310.9454249675929L772.177680859482,310.6938221186836L773.2472996257071,309.44062949497254L774.3169183919321,317.34424956140447L775.3865371581571,325.2492902117359L776.4561559243821,323.13543530627726L777.5257746906072,332.69729782354227L778.5953934568323,326.2752407206311L779.6650122230573,323.9831649538713L780.7346309892823,313.0082832202813L781.8042497555073,322.5534318341133L782.8738685217323,321.1539024256572L783.9434872879575,313.0180751570628L785.0131060541825,313.0903721194556L786.0827248204075,305.4401979751907L788.2219623528575,300.25033975511195L789.2915811190825,308.9375249456043L790.3611998853075,325.3744825369618L791.4308186515327,327.3980972244023L792.5004374177577,328.868882582148L793.5700561839827,327.9067284293358L794.6396749502077,321.1886793253847L795.7092937164327,315.20640174428024L796.7789124826578,315.34268245632796L797.8485312488828,321.3628964604802L798.9181500151079,310.82145738630226L799.9877687813329,308.40722181118673L801.0573875475579,310.9409179740412L803.196625080008,313.5800658591521L804.266243846233,306.46028795656093L805.335862612458,297.3247513696981L806.4054813786831,310.4447102016695L807.4751001449081,308.1620548051397L808.5447189111331,309.52867032622396L809.6143376773582,308.58995635688126L810.6839564435832,303.2328794998919L811.7535752098082,315.8903062257948L812.8231939760332,318.94931859984234L813.8928127422583,324.057415365743L814.9624315084834,336.1657055655217L816.0320502747084,324.6575147303674L817.0863887728444,321.0348357693467L818.1560075390695,327.8718405443981L819.2256263052946,322.23776237577164L820.3105253396085,319.0100809502607L821.3801441058334,323.12052869176017L822.4497628720586,313.720635794462L823.5193816382836,314.1832718739476L825.6586191707336,320.88328873776715L826.7282379369586,317.94674988356L827.7978567031837,318.21861393995147L828.8674754694086,322.69637745829925L829.9370942356338,324.7659777071966L831.0067130018588,324.893567619403L832.0763317680838,320.42691997524105L833.1459505343089,328.1933917424795L834.2155693005338,333.16595882858553L835.2851880667589,321.165833094479L836.3548068329839,323.2508953351104L837.424425599209,321.3270984481822L838.4940443654341,319.3898742424327L839.563663131659,319.8495519427853L840.6332818978841,324.47879329746786L841.702900664109,321.94867798684004L842.7725194303341,314.6950528163707L843.8421381965593,316.8500453045663L844.9117569627842,327.94377839524077L845.9813757290093,327.9854230523356L847.0509944952342,333.33597895417984L848.1206132614593,327.06543829579306L849.1902320276843,327.83200934338095L850.2598507939093,317.27797931576197L851.3294695601345,315.95126700851426L852.3990883263594,317.6019855512442L853.4687070925845,325.5841787621226L854.5383258588095,331.9412014025108L856.6775633912596,328.7654411701116L857.7471821574845,330.4555357501335L858.8168009237096,332.78010410923554L859.8864196899347,332.98606726930655L860.9560384561597,330.3579468444314L862.0256572223848,319.81698371972425L863.0952759886097,320.2824617503587L864.1648947548348,318.38353221164124L865.2345135210597,319.62528043834004L866.3041322872848,325.54970752322384L867.3737510535099,331.44368209439983L868.4433698197349,333.42548285906065L869.51298858596,331.35502301026895L870.5826073521849,325.1888020843614L871.65222611841,325.6264656365727L872.721844884635,333.70674296946544L873.79146365086,332.8247444890009L874.8610824170852,325.9542660217266L875.9307011833101,325.23355511296563L877.0003199495352,322.86104121425114L878.0699387157601,315.04315769720284L879.1395574819852,323.82508549299104L880.2091762482103,324.3612474238957L881.2635147463463,321.16857599817723L882.3331335125713,321.85130113244014L883.4027522787965,331.0603222843481L884.4723710450214,333.7827028262918L885.5267095431576,333.59359616092365L886.5963283093826,322.44646225277273L887.6659470756076,320.4183573048004L888.7355658418326,326.5405487042032L889.8051846080576,325.8753661118662L891.9291418724189,322.65831340283836L892.983480370555,323.0554870729684L894.037818868691,318.987482678016L895.0921573668271,318.16096063292326L896.1464958649632,325.80498312986424L897.2161146311882,335.0032098783217L898.2704531293243,323.858559372598L899.3247916274604,321.88743338907295L900.3791301255965,317.78417328683315L901.4487488918217,323.66804052204265L902.5030873899577,323.02217510545455L903.5574258880938,327.0597002285053L904.6270446543189,331.48378753823545L905.6813831524549,335.6420949293938L906.7510019186799,331.88471375221707L907.8053404168161,325.2804268486565L908.8596789149522,325.5931315835843L909.9140174130883,317.495784856803L910.9683559112244,318.3747210734351L912.0379746774495,335.13601152701676L913.0923131755856,331.1173761799033L914.1466516737216,325.04860711030875L915.2009901718577,328.6550931454473L916.2553286699938,332.79609979940585L917.3096671681299,331.5240248111044L918.3640056662659,337.2357322755846L919.4336244324911,329.4178344669613L920.4879629306272,319.98694796078615L921.5575816968523,324.3702543401363L922.6119201949883,328.97317180784665L924.7358774593495,333.3640875867082L925.7290948851298,340.14500080288985L926.7834333832659,347.5447249767873L927.837771881402,327.1344633243137L928.892110379538,324.85974468846945L929.9464488776741,326.5563241719859L931.0007873758104,326.22678516772476L933.1094643720826,323.0529620319848L934.1638028702187,315.0956418923517L935.2181413683547,318.8275965107817L936.2724798664908,327.7410347949155L937.3268183646269,327.358328029637L938.3811568627631,323.2061367783119L939.4354953608992,321.0865978115548L940.4898338590352,331.28895808134354L942.5985108553075,318.3352548740816L943.6528493534436,317.5046446197309L944.7071878515796,317.19189022942794L945.7615263497157,316.5667955359911L946.8158648478519,313.74499279285044L948.9245418441241,325.9160420897794L949.9788803422601,325.769796568751L951.0332188403962,324.19789150357195L952.0875573385323,322.76421060638575L953.1418958366684,323.81902736294893L954.1962343348047,322.8991217074501L955.2505728329407,321.63463216797345L894.5267874475367,315.8272616922306L895.5964062137617,328.08562541674985L896.6660249799869,329.66153806714476L897.7356437462118,330.60350912016537L898.8052625124369,325.55905091635884L899.8748812786619,325.7430018956143L900.9445000448869,319.79019517081986L902.0141188111119,318.3071825722908L903.0837375773369,328.534015325912L904.1533563435621,334.34486047592844L905.2229751097871,325.45497091290343L906.2925938760121,319.0271690462732L907.3469323741482,316.8987180458129L908.4165511403733,316.7847583867855L909.4861699065982,321.0304228203231L910.5557886728233,320.61844731836317L911.6254074390482,325.0702270640636L912.6950262052734,333.65646669843267L913.7646449714985,326.7761607253749L914.8342637377234,321.07606273683604L915.9038825039485,323.1439110236329L916.9735012701734,334.1364168893515L918.0431200363985,327.06470939741706L919.1127388026234,334.4312561972407L920.1823575688486,341.627339801077L921.2519763350737,346.52446788664946L922.3215951012986,335.17487302923166L923.3912138675237,334.71654654793537L924.4608326337486,341.33243335643937L925.5304513999737,330.92042001539045L926.6000701661989,331.95798716707384L927.6696889324238,325.2826295659548L928.7393076986489,320.17218611119233L929.8089264648738,325.93930951130926L930.8785452310989,321.48702092130594L931.948163997324,330.30227559547234L933.0177827635489,324.32202261156857L934.0874015297741,326.99636118918875L935.157020295999,327.403849992888L936.2266390622241,324.8339766586983L937.296257828449,322.28591488344387L938.3658765946741,327.50355782545824L940.5051141271241,329.2967816523866L941.5747328933493,329.9263325462475L942.6443516595742,325.07755879625904L943.7139704257993,323.89591981022534L945.8532079582493,332.99842992607915L946.9228267244744,336.20774317386156L947.9924454906993,325.6136888943631L949.0620642569245,326.82371008684106L950.1316830231495,329.25110259465447L951.2013017893745,333.04209646932225L952.2709205555996,333.5013371760893L953.3405393218245,325.67931206332725L954.4101580880496,332.6654633625109L956.5493956204996,322.2548101388887L957.6190143867248,323.0431250346211L958.6886331529497,321.8958900168663L959.7582519191748,318.7560168308011L960.8278706853997,313.4597608378411L961.8974894516248,316.6292562824443L962.9671082178498,317.27235432389136L964.0367269840748,318.8804158482832L965.1063457503,323.2313130745388L966.1759645165249,316.6575668190877L968.315202048975,319.22348463601975L969.3848208152,317.9176369898033L970.454439581425,317.7959455755262L971.52405834765,315.6360212611526L972.5936771138752,315.3390513728362L974.7329146463252,319.3663249469861L975.8025334125502,327.2234174378201L976.8721521787752,318.9698853313158L979.0113897112252,328.04363012700065L980.0810084774504,326.44959363728935L981.1506272436754,325.01633517869107L982.2202460099004,329.8036271760592L983.2898647761255,332.8329492429202L984.3594835423504,333.94157287407603L985.4291023085755,318.3609053044681L986.4987210748006,316.8570342914606L987.5683398410256,317.363683260469L988.6379586072507,321.26977158020964L989.7075773734756,317.231567274492L990.7771961397007,318.9818587671175L991.8468149059257,322.49908169808833L992.9164336721507,324.09142241584203L993.9860524383759,327.45478312361485L995.0556712046008,331.0506573162983L996.1252899708259,321.083615475821L998.2645275032759,318.0747038563839L999.3341462695009,322.11770528147173L1000.4037650357259,317.5678647668259L1001.473383801951,325.83044759284354L1003.6126213344011,330.5767449100729L1004.6822401006261,333.5038908689346L1005.7518588668511,329.56759350289224L1006.8214776330761,332.5988124366118L1007.8910963993011,340.3375018321261L1008.9607151655262,335.12388409312825L1010.0303339317513,337.8917928394787L1011.0999526979763,328.72772743257326L1012.1695714642013,334.4509366857667L1013.2391902304263,334.6336847156451L1014.3088089966514,337.9581145298188L1015.3784277628763,332.3451621820886L1016.4480465291014,328.94993559070065L1017.5176652953265,319.5749286807313L1018.5872840615515,316.74341048535086L1019.6569028277765,319.60261216403296L1020.7265215940015,320.5554629078988L1021.7961403602266,325.76467981672056L1022.8657591264516,330.685868327289L1023.9353778926766,331.85304782444547L1025.0049966589017,321.1705787641873L1027.1442341913516,315.357274524336L1028.2138529575768,325.1456348105531L1030.353090490027,321.27697884473343L1031.422709256252,332.0859108385789L1032.4923280224768,335.84521233004233L1033.5619467887018,325.9923475843748L1034.631565554927,329.04290504008026L1035.7011843211521,328.01114190409515L1036.770803087377,322.37443899041364L1038.910040619827,325.83856692621293L1039.9796593860522,326.7802045161443L1041.049278152277,323.2590984925629L1042.118896918502,327.3635873775442L1043.1885156847272,338.8756825101547L1044.2581344509522,329.8963294471323L1045.3277532171774,329.2494702858787L1046.3973719834023,327.22619353144006L1048.5366095158524,333.97672879269254L1049.6062282820774,337.37417411903243L1050.6758470483023,324.73211315622933L1051.7454658145275,323.4541262578512L1052.8150845807525,313.5537785003446L1053.8847033469776,316.91900963525285L1054.9543221132026,321.5758708114086L1056.0239408794275,326.5571452172414L1057.0935596456525,331.9478964764783L1058.1631784118777,338.45800825515033L1059.2327971781028,324.1775413650356L1060.3024159443278,328.1682716665837L1061.3720347105527,329.77855406280264L1062.4416534767777,320.29947285791553L1063.5112722430028,319.55924294159087L1064.5808910092278,317.9496009263806L1065.6505097754527,325.67577418177177L1066.720128541678,329.22655134923247L1067.7897473079029,331.0365493958865L1068.859366074128,331.16890139240337L1069.928984840353,323.76482923394485L1070.998603606578,321.71185467434924L1072.0682223728031,314.6502353815506L1073.137841139028,319.9615662511224L1074.2074599052532,317.8759177621695L1075.2770786714782,311.9375029446882L1076.3466974377031,314.9920209331671L1077.4163162039283,313.80747551701415L1078.4859349701533,305.9844358394329L1079.5555537363782,313.8949866354011L1081.6947912688283,313.16416594277905L1082.7644100350535,309.8611827936305L1083.8340288012785,310.49741814659376L1084.9036475675034,313.6666756475897L1085.9732663337284,317.22782231083045L1087.0428850999535,310.03342990328866L1089.1821226324037,320.1240067990564L1090.2517413986286,313.6587370064169L1091.3213601648536,308.4350338200523L1092.3909789310787,316.7146466848196L1093.4605976973037,310.65947410639944L1096.6694539959788,310.6845632762323L1097.739072762204,312.74473861425577L1098.8086915284289,308.42732305806834L1099.8783102946538,312.6961461441803L1100.947929060879,320.9392690274898L1102.017547827104,328.6804169766851L1103.087166593329,318.11106868678314L1104.1567853595539,321.3273083566927L1105.226404125779,328.4101585378026L1106.2960228920042,325.0271963516511L1107.3656416582292,324.45114992811455L1108.435260424454,322.0466726464938L1109.504879190679,324.04495695464163L1110.5744979569042,324.9831296014739L1111.6441167231292,320.645966818474L1112.7137354893543,326.43364690101004L1113.7833542555793,327.3568413668864L1114.8529730218042,330.02154615775294L1115.9225917880294,331.715857316339L1116.9922105542544,320.4735997213792L1118.0618293204793,325.9363604817899L1119.1314480867045,324.52162640810207L1120.2010668529294,323.4233224930409L1121.2706856191546,328.1603354770748L1122.3403043853796,329.9558012761204" style="fill: none;" fill="none"></path></g></g></g></g><g opacity="0.2"><g><g><g><path stroke="rgb(255, 112, 67)" stroke-width="2px" d="M53.011863254037586,4.891316238009608L53.943959607462254,34.6492235468786L55.79287204622267,16.728208030781502L56.74024866773626,57.03703161856106L57.70290555733879,99.41360652977892L58.65028217885239,96.96387577200863L59.597658800366,98.46924291622554L60.52975515379066,102.20797346565047L61.41601070294855,114.56556700023123L62.27170571592857,138.5766233049013L63.219082337442174,135.95825618756788L64.24286029940042,113.42127232647067L65.2819185294476,123.37390756365645L66.3362570275837,168.77015810634921L67.39059552571979,150.58063931833962L68.4449340238559,201.0449219909666L69.499272521992,138.69595078739914L53.011863254037586,4.891316238009608L54.1273228245294,26.373484600927327L55.22750212693229,13.271458513000312L56.31240116124625,44.12737589635793L57.39730019556021,93.27287621558287L58.482199229874176,86.31151469668254L59.56709826418813,78.08955529931706L60.651997298502096,128.94620514304447L61.73689633281605,134.4260650142275L62.821795367130015,115.02657212820645L64.99159343575793,183.2149635345167L66.0764924700719,181.0755499764103L67.16139150438586,168.33005994224965L68.24629053869981,154.25822686020365L69.33118957301377,146.47932415956168L70.41608860732774,167.8809546899395L71.5009876416417,225.96602293075262L72.58588667595566,167.52888930769373L73.67078571026963,174.60951256392255L74.75568474458358,208.09872121807194L75.84058377889754,218.26772380781995L76.9254828132115,237.73578890554637L79.09528088183941,215.46434978373782L80.18017991615339,211.4391675311486L81.26507895046734,229.6868707940952L82.3499779847813,222.13031825643273L83.43487701909527,241.76399543592893L84.51977605340923,228.22180543873293L85.60467508772318,247.21696553281907L86.68957412203716,267.1311773502317L87.7744731563511,235.9052461533766L88.85937219066507,288.00618907355283L89.94427122497903,274.9891714896863L91.029170259293,287.05281837178893L92.11406929360695,243.07390219145924L93.19896832792092,224.541259364245L94.28386736223487,301.5259599679765L95.36876639654884,232.34402756138655L96.4536654308628,317.3224860794256L97.53856446517676,248.2777638414158L98.62346349949071,287.3735890533906L99.70836253380467,323.0991853905414L100.79326156811864,269.0080047016734L101.86288033434367,281.247782892653L102.94777936865763,248.02116044516833L104.03267840297158,284.5732393071018L105.11757743728555,289.67565616064286L106.20247647159951,247.36620706740317L107.28737550591347,277.1673746977507L108.37227454022742,257.50976627658554L110.54207260885535,291.07655423065086L111.62697164316931,320.6658909251262L112.71187067748328,282.4547327128711L113.79676971179724,280.3123606221408L114.88166874611119,293.5710574487964L115.96656778042517,260.7158952085365L117.05146681473911,278.97260555969365L118.13636584905308,306.13154057620824L119.22126488336704,298.9673552096462L120.306163917681,327.53021257396216L121.39106295199495,316.03197414887427L122.47596198630893,288.8372080150256L124.64576005493684,293.062321327822L125.7306590892508,305.14687517380025L126.81555812356477,289.2280630472294L127.90045715787872,301.00085329981647L128.98535619219268,257.0472490097136L130.07025522650665,304.8037511345956L131.13987399273168,263.7295880295942L132.22477302704564,291.8612885728517L133.3096720613596,293.9395591233972L134.39457109567357,252.3924910147555L135.47947012998753,279.90500355241255L136.56436916430147,259.7804729380243L137.64926819861546,256.8980732202989L138.7341672329294,292.9504230494686L139.81906626724336,296.984546645099L140.90396530155732,305.12452181619733L141.98886433587128,308.8334040587054L143.07376337018525,273.98359912340266L144.1586624044992,284.318148049751L145.24356143881317,258.2766179327041L146.32846047312714,303.37747542919135L147.41335950744107,288.6909907582349L148.49825854175506,298.45861908867187L149.583157576069,289.6964973793491L150.66805661038296,329.40855206430047L151.75295564469693,334.6675739114007L152.83785467901092,287.9614166131776L153.92275371332485,315.8424965706049L155.00765274763882,292.7400385073236L156.09255178195278,345.91223321803443L157.17745081626674,299.37017586268445L158.26234985058068,271.857597579858L159.34724888489464,314.03128289824474L160.43214791920863,309.40486107130675L161.5170469535226,305.30650444515277L162.60194598783653,281.4133949744228L163.6868450221505,327.4899107851075L164.77174405646446,315.6559775249595L165.8566430907784,310.0090591782795L166.94154212509238,282.68595847372234L168.02644115940635,294.07683503714685L169.1113401937203,322.6516580222973L170.19623922803424,294.6631504580372L171.2811382623482,283.4364395826552L173.45093633097616,276.63470733510735L174.53583536529013,304.0578064423528L175.62073439960406,272.6139957540387L177.790532468232,283.0305946518236L178.87543150254592,287.10804431410196L179.9603305368599,322.42634932669387L181.04522957117388,279.3455779058151L182.13012860548784,292.0299249324148L183.21502763980178,306.02864938606547L184.29992667411574,296.0073761920049L185.3848257084297,296.529524327541L186.4697247427437,289.20866822225037L187.55462377705763,306.67761995341334L188.6395228113716,333.53971552999525L189.72442184568555,309.34365231857646L190.80932087999952,277.2285177053116L191.89421991431345,285.44456003742926L194.0640179829414,293.66507304106744L195.14891701725537,272.72740617128875L196.2338160515693,270.8042942205752L197.31871508588327,245.8056139808732L199.4885131545112,289.67565616064286L200.57341218882516,298.2556637506713L201.65831122313912,269.0647427828831L202.7432102574531,284.20473763250095L203.82810929176705,277.6745986798284L204.91300832608098,260.272838511813L205.99790736039495,259.4194004675679L207.08280639470894,253.1473770500395L208.1677054290229,276.2378694924863L209.25260446333684,307.97260255548525L210.3375034976508,299.02705182347984L211.42240253196476,262.96273637347565L212.50730156627873,254.3513683376337L213.5922006005927,274.85038343704L214.67709963490665,255.7612077506829L215.76199866922062,301.4454221354366L216.84689770353458,271.76956479800424L219.01669577216248,266.0584791659699L220.10159480647647,257.1905077338805L221.18649384079043,263.4491191368471L222.27139287510437,247.98828786045817L223.35629190941833,246.1085019763926L224.42591067564337,309.3645592824521L225.51080970995733,305.9614578229179L226.5957087442713,262.76135891954124L227.68060777858526,278.23257793269863L228.76550681289922,281.7908379920648L229.85040584721315,273.6672991133215L230.93530488152712,303.3386857792334L232.02020391584108,270.6580769637844L233.10510295015507,295.67168135694476L234.190001984469,259.42689541688185L235.27490101878297,294.4408660402271L236.35980005309693,273.4316026809497L237.4446990874109,293.72470390973166L238.52959812172483,295.90593139558933L239.61449715603882,304.5053338105968L240.6993961903528,261.825936649029L243.95409329329465,271.92472339783615L248.2936894305505,309.41676094697186L249.37858846486446,282.3309345588526L250.4634874991784,289.9233182138492L251.54838653349236,299.32540340230923L252.63328556780635,276.56462298450526L253.71818460212032,311.51738485512027L255.88798267074822,285.94435481536243L256.97288170506215,294.83770388284813L258.05778073937614,314.6772949329687L259.1426797736901,269.51378229002387L260.22757880800407,298.5108207531915L262.397376876632,281.6222673776711L263.48227591094593,270.43283401335043L264.5671749452599,282.4039774420786L265.65207397957386,267.4698307179158L266.73697301388785,257.3516491441297L267.8218720482018,298.75545852860455L268.9067710825158,294.4692022082473L269.9916701168297,273.88064218809046L271.07656915114364,287.3721426596634L272.16146818545764,263.3730519758278L273.2463672197716,315.96931900241674L274.33126625408556,275.254716228975L275.4161652883995,312.39613478959217L277.5859633570274,300.5070413323005L278.67086239134136,256.2550854633683L279.75576142565535,269.07065984813096L280.84066045996934,300.3040859943L281.9255594942833,299.9788446411777L283.0104585285972,276.37067473471535L284.0953575629112,278.4101556353029L285.18025659722514,283.16635842667654L286.26515563153913,293.20998497834L287.365334933942,285.7981375585717L288.450233968256,302.0586273306199L290.5589109645282,274.28195070223205L291.64380999884213,280.29743646868235L292.68286822888933,283.6975136504233L293.7372067270254,310.35369535638074L294.79154522516154,298.54066906010837L295.81532318711976,274.301345527211L296.8238208809891,254.44834246252867L297.8781593791252,274.760904261459L298.94777814535024,281.67295690329416L300.01739691157525,262.05867454877693L301.08701567780025,278.29970375067677L302.1413541759364,270.35078404191387L303.1651321378946,246.14729162635058L304.23475090411966,270.7908822060134L305.30436967034467,316.36168617351717L306.37398843656973,277.46723841547674L307.44360720279474,293.1950608248816L308.51322596901974,270.22987867534994L309.58284473524486,272.1888217433975L310.65246350146987,295.91336059973383L311.7220822676949,348.7289535115089L312.7917010339199,282.2204826742265L313.86131980014494,325.9607438895605L314.93093856636995,322.7083303583376L316.000557332595,290.159014646221L317.07017609882007,278.3429640721553L318.1397948650451,294.1991867974381L319.2094136312701,369.20114458179177L320.2790323974951,303.07162890104803L322.4182699299452,281.70576374283485L323.4878886961702,328.19114876214456L324.5575074623953,284.7880945207674L326.6967449948453,301.3439773390211L327.76636376107035,284.8000601416019L328.8359825272954,338.1676494958299L329.9056012935204,328.1717539371656L330.9752200597454,268.1978927240763L332.04483882597043,285.1446963197032L333.1144575921955,288.07929770194824L334.18407635842055,311.4979900301413L335.25369512464556,255.2689079220636L336.3233138908706,296.7667328988095L337.3929326570956,271.8695632006925L338.46255142332063,278.4623572998226L339.53217018954575,267.12821881760783L340.60178895577076,290.0486285067643L341.67140772199576,285.4266773513469L343.81064525444583,257.2546750192347L345.9498827868959,273.5106283745929L348.08912031934597,289.62641302874704L349.15873908557097,272.7557423393089L350.2436381198849,294.334950572291L351.31325688610997,294.8227797293897L352.38287565233503,292.6699541567216L353.45249441856004,266.8611619394225L354.5221131847851,305.87197864733685L355.5917319510101,317.6044671110693L356.6613507172351,278.3728123790721L357.7309694834601,263.0104673664748L358.80058824968523,305.33339421944567L359.88548728399917,270.9922596599479L360.9703863183131,293.0638334667187L362.0552853526271,288.7044027727966L365.29470218748,324.579174899362L366.36432095370503,287.22737179659987L367.44921998801897,279.8364313407071L368.534119022333,300.6054618509227L369.61901805664695,299.04191023176884L371.7888161252749,267.79060139951747L372.8737151595888,287.4019252214108L373.9433339258139,323.73474394332754L375.0129526920389,270.7804287240756L376.0978517263528,255.92386129982873L377.1674704925778,314.3609949228876L378.25236952689187,288.60591650900494L379.3372685612058,285.89359954456995L380.40688732743087,273.2107646568669L381.47650609365587,271.31901315196683L382.5461248598809,297.13523457341034L383.6157436261059,273.26743699290716L384.685362392331,293.10709378819723L385.754981158556,283.1514342732181L386.83988019286994,275.29501801782965L387.92477922718393,312.01126256780566L388.99439799340894,302.0839392208467L390.06401675963394,285.22523415224305L391.133635525859,286.55900640427296L393.2728730583091,269.2407426014213L394.3424918245341,292.26410922589L395.41211059075914,294.2513884619578L396.48172935698415,283.9481342362535L397.55134812320915,338.74653571257574L398.62096688943427,302.0586273306199L399.6905856556593,291.8359766826249L400.7602044218843,279.8334070629138L401.8298231881093,299.7505774129504L402.89944195433435,295.2017348859284L403.9690607205594,339.2999785487559L405.0386794867844,311.6680727834316L406.1082982530095,317.35378078006966L407.1779170192345,289.17434924381297L408.2475357854595,303.02238576915227L409.3171545516845,286.0293633194229L410.3867733179096,316.25721709930826L411.4563920841346,299.22547074479036L412.5260108503596,307.5906888663227L413.5956296165847,296.67725372322843L414.6652483828097,321.41933056668296L415.7348671490347,324.3822681169482L416.80448591525976,279.2455795031268L417.8741046814848,298.37058630681804L418.94372344770983,312.19771586828165L420.01334221393483,308.9602264905172L421.08296098015984,301.6289169032887L422.15257974638496,308.670816254729L423.22219851260996,300.0266413793463L424.29181727883497,276.2752127487171L425.36143604506003,291.7180955938543L426.43105481128504,275.7470160575943L427.50067357751004,285.8772289973843L428.57029234373516,311.80087802566067L429.63991110996017,296.0954089738587L430.7095298761852,340.7382198749947L432.84876740863524,308.4111885806882L433.9183861748603,288.56863899794365L434.9880049410853,299.3283619349331L436.05762370731037,323.24842692512544L437.1272424735354,293.7336452527728L438.1968612397604,307.03718028497303L439.2664800059854,284.0585203757102L440.3360987722105,287.5839735955356L441.4057175384355,278.49963481088395L442.4753363046605,316.5810120587033L443.5449550708855,295.98646922812924L444.6145738371106,318.89346690272396L445.6841926033356,301.3559429598556L446.75381136956065,278.6010796072995L447.8234301357857,286.81416340679317L448.8930489020107,296.16700546335744L449.9626676682357,303.0820823829859L451.03228643446073,303.45505472910736L452.10190520068585,323.0410009156044L453.17152396691085,288.40006838355L454.24114273313586,292.2178903717875L455.3107614993609,308.43656621608443L456.3803802655859,315.0442844686729L457.44999903181093,300.705460253611L459.58923656426106,288.5223543986717L460.65885533048606,278.7114657467562L461.72847409671107,322.95448027264723L462.79809286293613,274.76235065518625L463.8677116291612,316.66457416903654L466.0069491616112,314.1745416224116L467.07656792783627,347.44291225247815L468.14618669406127,346.0539140581352L469.2158054602863,318.4801927677479L470.2854242265114,322.4383149475284L471.3550429927364,324.5180318918011L473.4942805251864,273.2450836353043L475.6335180576365,284.944765259496L476.70313682386154,329.23846931101014L477.7727555900866,289.29821314300085L479.8967128544477,314.09992085511954L480.92049081640596,317.90433082879537L481.9137082421863,308.14866811919285L483.88486282565816,273.3435698990959L484.9392013237943,264.0578536605098L485.99353982193037,293.8187195020027L487.0478783200665,285.5832823449061L488.1022168182026,273.84632320965306L489.15655531633865,306.923769867723L490.2108938144748,268.7976859046978L491.2652323126109,285.36099792709604L492.319570810747,324.6150060166961L493.37390930888307,314.91003283271664L494.4282478070192,296.04767798085953L495.48258630515534,262.0601209425042L496.5369248032914,311.8784573255766L498.6456017995636,305.31248725557L500.7542787958358,285.95625469102754L501.80861729397196,314.305834725744L502.86295579210804,286.43967892177506L503.9172942902441,283.6154636789867L504.9716327883802,307.2266578632424L506.0259712865164,287.98679424857386L507.08030978465246,295.0376349430553L508.14992855087746,288.56863899794365L509.20426704901354,275.61723509315857L511.32822431337473,275.44268166834763L512.3978430795997,298.60181206766924L513.4674618458248,284.9507480699133L514.5370806120497,294.85111589740984L515.6066993782748,292.3476713362232L516.6763181444999,260.5159641483293L517.7459369107249,315.85893286296L518.8155556769499,278.04165396070204L519.885174443175,276.1170298710918L520.9547932094,274.35058865910685L522.0244119756251,312.34991593548966L523.09403074185,295.4703039030104L512.5048049562222,282.5382948232043L513.5744237224472,271.8009252438177L514.6440424886723,302.14363583468037L515.7136612548974,292.84148330373915L516.7832800211223,301.26041522868786L517.8528987873474,268.1561445414944L518.9225175535724,282.0071395994576L519.9921363197975,265.8421775585771L521.0617550860225,302.4002392309278L522.1160935841586,269.77038568627137L523.1857123503836,281.3462034112752L524.2400508485197,289.096769943897L525.3096696147447,313.89256059076786L526.3792883809698,296.07003133846246L527.4489071471949,319.6975960699038L528.5185259134198,334.05588085511414L529.5881446796449,298.6510551995651L530.6577634458699,331.2510604373048L531.727382212095,304.1129666394964L532.7970009783199,275.43972313572374L534.9209582426811,313.5583778946044L535.9905770089061,307.57576471286427L537.0601957751312,329.0221677036173L538.1298145413563,297.6917674325533L539.1841530394923,317.6700807901508L540.2384915376284,308.88264719060123L541.3081103038535,305.4796114762364L542.3777290700785,295.8089572706944L543.4473478363035,273.2033354527224L544.5169666025286,305.67204758712967L545.5713051006646,300.8441825610879L546.6409238668897,294.28268316260187L547.6952623650258,311.1265298229165L548.7648811312508,329.0862692438021L549.8344998974758,353.75076678734064L550.8888383956119,294.7258056044948L551.958457161837,271.94260608391846L554.097694694287,317.8387171497139L555.1673134605121,294.0902470517086L556.236932226737,319.7602512163614L557.3065509929621,311.36077986156107L558.3608894910982,300.6069739898194L559.4305082573233,302.71055643059174L561.5697457897733,281.7908379920648L562.6393645559984,299.82519818024247L563.6937030541345,336.2371083409718L564.7633218203595,302.9060168192783L565.8329405865845,310.45066948127567L566.9025593528096,305.5974268198376L567.9568978509457,300.63379801894285L569.0265166171707,310.17020058852864L570.0808551153068,321.5729770276182L571.1504738815319,299.60889657284963L572.2200926477568,304.1890995456851L574.3593301802069,285.74738228777915L575.428948946432,301.4275394493543L576.498567712657,303.08057024408924L577.568186478882,300.2593792790942L578.6378052451071,282.54427763362156L579.7074240113321,290.4633490354676L580.7770427775571,281.376051718192L582.9162803100072,299.0852362984168L583.9858990762322,303.16413235442246L585.0555178424572,311.2832005616451L586.1098563405933,311.02955569802157L590.3577708693156,309.2407611284337L591.4273896355406,324.4076457523444L592.4970084017657,291.6046851766042L594.6362459342157,323.69148362184893L595.7058647004408,315.4530879321284L596.7754834666658,301.0545671032329L597.8451022328908,314.5982034941561L598.9147209991158,331.89260180050815L599.9843397653409,303.565440868564L601.053958531566,287.4138908422453L602.123577297791,276.7272107884817L603.193196064016,325.98013871453946L604.262814830241,284.97757209903676L605.3324335964661,294.9123246501402L606.402052362691,334.11708960784443L607.4716711289161,316.96890855828315L608.5412898951411,290.9542024703597L609.6109086613662,301.4424636028127L610.6805274275913,303.66392713235564L611.7501461938162,268.27402563026504L612.8197649600413,288.9147873149416L613.8893837262663,297.57539848267936L614.9590024924913,308.784226671979L616.0286212587164,307.5459164059474L618.1678587911665,311.1682780054984L619.2374775573915,285.59222368794724L620.3070963236165,301.7915704524346L621.3767150898415,304.915649412949L622.4463338560665,314.3072811194712L623.5159526222916,298.26020016736135L624.5855713885165,311.5606451765988L625.6551901547417,280.67336734742776L626.7248089209667,275.34721968234936L627.7944276871917,301.02471879631605L628.8640464534168,286.26808402958807L629.9336652196417,293.4934781488804L631.0032839858668,298.88977590973025L632.0729027520917,305.4959820234221L633.1425215183169,292.8057179315745L634.212140284542,293.8843331810842L635.2817590507669,323.9466406243692L636.351377816992,287.9286097736369L637.420996583217,286.7798444283558L638.490615349442,277.36132294754066L640.6298528818921,310.0448902956135L641.6994716481172,300.0027101376773L642.7690904143421,286.93197875039436L643.8387091805672,301.1962479433337L644.9083279467922,284.8746151637245L645.9779467130172,306.34935432249773L647.0475654792424,280.82556741463577L648.1171842454673,300.08929652580383L649.1868030116924,303.49233224016865L650.2564217779174,297.3143244149113L651.3260405441424,288.29559930934107L652.3956593103675,303.6982461107931L653.4652780765924,330.58269504497787L654.5348968428175,351.4994549508809L656.6741343752676,325.2236747951893L657.7437531414926,322.85152333733504L658.8133719077176,316.4243413199747L659.8677104058537,323.1708476252095L660.9373291720788,314.43712782907636L662.0069479383037,341.8526662418384L663.0765667045289,318.399654935208L664.146185470754,318.6428463168937L665.2158042369789,331.6076622362405L666.285423003204,334.32740840482L667.3550417694289,337.15313578650506L668.424660535654,313.06903659860905L669.494279301879,325.9950628679979L670.5638980681041,335.1584273462928L671.6335168343292,307.6533440127802L672.7031356005541,347.4996503336879L674.8423731330041,300.5249240183828L675.9119918992292,307.5280337198651L676.9816106654542,317.97296878567016L678.0512294316792,298.0930759466949L679.1208481979044,311.4979900301413L680.1904669641293,315.157694885923L681.2600857303544,281.8430396565845L682.3297044965794,302.7285048618435L683.3993232628044,315.7678758033129L684.4689420290294,298.04534495369575L685.5385607952544,286.7350719679805L686.6081795614796,312.6930399746943L687.6777983277046,317.52241713963275L688.7474170939296,303.88174087864513L689.8170358601546,305.91372682991874L690.8866546263796,317.6656101186302L691.9562733926047,343.17749715082715L693.0258921588296,306.75368711443264L694.0955109250548,300.07581876607264L695.1651296912798,304.9992115232822L697.3043672237299,277.0614592298146L698.3739859899548,312.4095468041539L699.4436047561799,316.16622578483054L700.513223522405,339.54468206933836L702.652461054855,350.4595636061598L703.72207982108,311.4979900301413L704.7916985873051,350.6281999657229L706.9309361197551,335.2270653031676L708.0005548859803,303.7921959578947L709.0701736522052,345.7182849682445L710.1397924184303,322.22497187275945L711.2094111846552,335.49556857508014L712.2790299508803,299.6148136380975L713.3486487171053,295.37030550032205L714.4182674833303,325.27738859860574L715.4878862495555,296.2281484709183L716.5575050157804,320.4048168573581L717.6271237820055,305.0021700559061L718.6967425482305,306.2613872858134L719.7663613144555,326.07264216791384L720.8359800806805,307.2370456000108L721.9055988469055,329.80986057844206L722.9752176131306,319.03225495537026L726.1840739118057,280.621165682908L727.2536926780307,319.89608073638374L728.3233114442558,277.48512110155906L729.3929302104807,327.78681597020966L730.4625489767058,334.9674376291268L731.5321677429309,287.91815629169906L732.6017865091559,333.46062409118264L733.671405275381,331.140674297848L734.7410240416059,297.88571568234323L735.810642807831,310.14186442050845L736.880261574056,308.8334040587054L737.949880340281,332.24617932165063L739.0194991065061,313.28829673862583L740.0891178727311,323.0097062149603L742.2283554051812,314.9458639500507L743.2979741714062,326.30084365097173L744.3675929376312,310.6670368338379L745.4372117038562,308.951285147476L746.5068304700814,320.5733874717518L747.5764492363064,284.24352728245896L748.6460680025314,305.67204758712967L749.7156867687564,290.54092833538357L750.7853055349814,314.80707589740445L751.8549243012064,279.8021123622698L752.9245430674314,322.5830200654225L753.9941618336566,294.8332332113275L755.0637805998816,292.16266442947443L756.1333993661066,293.35021942471354L757.2030181323316,325.34602655548053L758.2726368985566,302.1690134700766L759.3422556647816,316.23637588060205L760.4118744310068,298.8494741208756L761.4814931972318,306.10918721860537L762.5511119634568,320.2272391547538L763.6207307296818,306.2135905476448L764.6903494959068,331.1018846478901L766.8295870283569,310.4417281382345L768.968824560807,304.8305751637191L772.177680859482,310.3164178453194L773.2472996257071,307.56084055940585L774.3169183919321,329.19967966105213L775.3865371581571,337.10685118723313L776.4561559243821,319.9646529480891L777.5257746906072,347.0400915994399L778.5953934568323,316.6421550662642L779.6650122230573,320.5450513037316L780.7346309892823,296.5459606198961L781.8042497555073,336.8711547548613L782.8738685217323,319.05460831297313L783.9434872879575,300.81433425417106L785.0131060541825,313.1988175630447L786.0827248204075,293.96493675879344L788.2219623528575,292.4655524249938L789.2915811190825,321.96830273134253L790.3611998853075,350.029918923998L791.4308186515327,330.43351925556317L792.5004374177577,331.07506061876654L793.5700561839827,326.46349720011756L794.6396749502077,311.1116056694581L795.7092937164327,306.23298537262383L796.7789124826578,315.54710352439946L797.8485312488828,330.3932174667085L798.9181500151079,295.0092987750351L799.9877687813329,304.78586844851327L801.0573875475579,314.74146221832297L803.196625080008,317.5387876868184L804.266243846233,295.7806211026742L805.335862612458,283.621446489404L806.4054813786831,330.12464844962653L807.4751001449081,304.73807171034474L808.5447189111331,311.57859360785056L809.6143376773582,307.1818854028672L810.6839564435832,295.1972642144078L811.7535752098082,334.87644631464906L812.8231939760332,323.5378371609137L813.8928127422583,331.7195605145939L814.9624315084834,354.3281408651898L816.0320502747084,307.39522847763607L817.0863887728444,315.6008173278159L818.1560075390695,338.12734770697523L819.2256263052946,313.78664512283177L820.3105253396085,314.16855881199433L821.3801441058334,329.2862003040093L822.4497628720586,299.6207964485147L823.5193816382836,314.8772259931759L825.6586191707336,330.9333140334964L826.7282379369586,313.5419416022494L827.7978567031837,318.62641002453864L828.8674754694086,329.4130227358211L829.9370942356338,327.8703780805429L831.0067130018588,325.0849524877125L832.0763317680838,313.72694850899813L833.1459505343089,339.8430993933371L834.2155693005338,340.6248094577447L835.2851880667589,303.1656444933191L836.3548068329839,326.3784886960571L837.424425599209,318.4414031177899L838.4940443654341,316.48403793380834L839.563663131659,320.5390684933144L840.6332818978841,331.42265532949176L841.702900664109,318.15350502089836L842.7725194303341,303.814615060667L843.8421381965593,320.0825340368597L844.9117569627842,344.5843780312524L845.9813757290093,328.0478900379777L847.0509944952342,341.3618128069464L848.1206132614593,317.659627308213L849.1902320276843,328.98186591476264L850.2598507939093,301.44693427433333L851.3294695601345,313.9611985476427L852.3990883263594,320.0780633653392L853.4687070925845,337.55746857843997L854.5383258588095,341.47673536309304L856.6775633912596,324.0018008215128L857.7471821574845,332.9906776201662L858.8168009237096,336.26695664788866L859.8864196899347,333.29501200941286L860.9560384561597,326.41576620711845L862.0256572223848,304.0055390326636L863.0952759886097,320.9806787963106L864.1648947548348,315.535137903565L865.2345135210597,321.48790277838833L866.3041322872848,334.43634815054946L867.3737510535099,340.28464395116396L868.4433698197349,336.3981840060516L869.51298858596,328.24933323708154L870.5826073521849,315.9394706954999L871.65222611841,326.2829609648894L872.721844884635,345.82715896880455L873.79146365086,331.50174676830443L874.8610824170852,315.648548320815L875.9307011833101,324.15248874982416L877.0003199495352,319.30227036617947L878.0699387157601,303.3163324216305L879.1395574819852,336.9979771866731L880.2091762482103,325.1654903202524L881.2635147463463,316.3795688595995L882.3331335125713,322.8753888338346L883.4027522787965,344.87385401221L884.4723710450214,337.8662736392072L885.5267095431576,333.3099361628713L886.5963283093826,305.7257613905461L887.6659470756076,317.376199882842L888.7355658418326,335.72383580330745L889.8051846080576,324.8775922233608L891.9291418724189,317.8327343392966L892.983480370555,323.65124757816375L894.037818868691,312.8854760855875L895.0921573668271,316.921177565284L896.1464958649632,337.2710168752757L897.2161146311882,348.80055000100765L898.2704531293243,307.1415836140125L899.3247916274604,318.9307444137853L900.3791301255965,311.6292831334736L901.4487488918217,332.4938413748569L902.5030873899577,322.05337698057247L903.5574258880938,333.1159879130813L904.6270446543189,338.1199185028307L905.6813831524549,341.87955601613135L906.7510019186799,326.248641986452L907.8053404168161,315.3739964933158L908.8596789149522,326.062188685976L909.9140174130883,305.3497647666313L910.9683559112244,319.69312539838324L912.0379746774495,360.2779472073893L913.0923131755856,325.08942315923304L914.1466516737216,315.94545350591716L915.2009901718577,334.0648221981553L916.2553286699938,339.0076097803438L917.3096671681299,329.61591232865214L918.3640056662659,345.803293472305L919.4336244324911,317.6909877540264L920.4879629306272,305.8406182015234L921.5575816968523,330.94521390916145L922.6119201949883,335.8775480094121L924.7358774593495,339.9504612550005L925.7290948851298,350.31637062716237L926.7834333832659,358.64431123763336L927.837771881402,296.5190708456032L928.892110379538,321.4476667347031L929.9464488776741,329.10119339726054L931.0007873758104,325.7324766613331L933.1094643720826,318.2922273283752L934.1638028702187,303.15966168290186L935.2181413683547,324.42552843842674L936.2724798664908,341.11119222111614L937.3268183646269,326.7842678817193L938.3811568627631,316.9778499013243L939.4354953608992,317.90728936141926L940.4898338590352,346.59249848602644L942.5985108553075,298.90470006318867L943.6528493534436,316.2587292382049L944.7071878515796,316.7227586439735L945.7615263497157,315.629153495836L946.8158648478519,309.51228867813956L948.9245418441241,344.17261603517295L949.9788803422601,325.5504282872083L951.0332188403962,321.8400339058035L952.0875573385323,320.6136892606064L953.1418958366684,325.4012524977936L954.1962343348047,321.51926322420184L955.2505728329407,319.73789785875846L894.5267874475367,307.1162059786163L895.5964062137617,346.47317100352853L896.6660249799869,332.0254070427372L897.7356437462118,332.016465699696L898.8052625124369,317.99236361064914L899.8748812786619,326.0189283644974L900.9445000448869,310.86098508362784L902.0141188111119,316.0826636744973L903.0837375773369,343.8742644563436L904.1533563435621,343.0611282009532L905.2229751097871,312.1201365683657L906.2925938760121,309.3854662463278L907.3469323741482,313.70604154512245L908.4165511403733,316.61381889824406L909.4861699065982,327.3989194706298L910.5557886728233,320.00048406542317L911.6254074390482,331.74789668261405L912.6950262052734,346.5358261499861L913.7646449714985,316.4557017657882L914.8342637377234,312.52591575402784L915.9038825039485,326.24568345382806L916.9735012701734,350.6251756879295L918.0431200363985,316.45714815951544L919.1127388026234,345.48107639697605L920.1823575688486,352.42146520683133L921.2519763350737,353.8701600150079L922.3215951012986,318.150480743105L923.3912138675237,334.02905682599066L924.4608326337486,351.25626356919514L925.5304513999737,315.30240000381707L926.6000701661989,333.514337894599L927.6696889324238,315.26959316427633L928.7393076986489,312.50652092904886L929.8089264648738,334.58999461148477L930.8785452310989,314.8085880363011L931.948163997324,343.52515760672173L933.0177827635489,315.3516431357129L934.0874015297741,331.00786905561904L935.157020295999,328.01508319843697L936.2266390622241,320.97916665741394L937.296257828449,318.46382222056224L938.3658765946741,335.3300222384798L940.5051141271241,331.9866173927792L941.5747328933493,330.8706588870388L942.6443516595742,317.8043981712765L943.7139704257993,322.1234613311745L945.8532079582493,346.6521950998601L946.9228267244744,341.0217130455351L947.9924454906993,309.7226074751151L949.0620642569245,328.638741875558L950.1316830231495,332.8921913563746L951.2013017893745,338.728587281324L952.2709205555996,334.19019823623984L953.3405393218245,313.9462743941843L954.4101580880496,343.1446903112864L956.5493956204996,306.6388303034554L957.6190143867248,324.22559737821956L958.6886331529497,320.1750374902341L959.7582519191748,314.04620705170316L960.8278706853997,305.51537684840105L961.8974894516248,321.38349944934885L962.9671082178498,318.23700138606216L964.0367269840748,321.2925081348712L965.1063457503,329.75765891392234L966.1759645165249,306.79694743591125L968.315202048975,323.07236136141785L969.3848208152,315.95886552047887L970.454439581425,317.61340845411047L971.52405834765,312.39613478959217L972.5936771138752,314.89359654036156L974.7329146463252,325.40723530821083L975.8025334125502,339.0090561740711L976.8721521787752,306.5895871715596L979.0113897112252,341.65424732052793L980.0810084774504,324.05853890272255L981.1506272436754,322.86644749079346L982.2202460099004,336.9845651721114L983.2898647761255,337.3769323432118L984.3594835423504,335.6045083208096L985.4291023085755,294.98990395005615L986.4987210748006,314.6012277719494L987.5683398410256,318.1236567139815L988.6379586072507,327.12890405982057L989.7075773734756,311.17426081591566L990.7771961397007,321.6072960060556L991.8468149059257,327.77491609454455L992.9164336721507,326.4799334924727L993.9860524383759,332.4998241852742L995.0556712046008,336.4444686053235L996.1252899708259,306.1330527151049L998.2645275032759,313.56133642722835L999.3341462695009,328.1822074191034L1000.4037650357259,310.7431039948572L1001.473383801951,338.2243218318702L1003.6126213344011,337.69619088591685L1004.6822401006261,337.8946098072273L1005.7518588668511,323.6631474538288L1006.8214776330761,337.14564083719114L1007.8910963993011,351.9455359253977L1008.9607151655262,327.3034574846315L1010.0303339317513,342.0436559590044L1011.0999526979763,314.9816293222154L1012.1695714642013,343.03575056555695L1013.2391902304263,334.90780676046256L1014.3088089966514,342.94475925107923L1015.3784277628763,323.9257336604935L1016.4480465291014,323.8570957036187L1017.5176652953265,305.51241831577715L1018.5872840615515,312.49613319228047L1019.6569028277765,323.8914146820561L1020.7265215940015,321.98473902369767L1021.7961403602266,333.57850517995325L1022.8657591264516,338.0676510931416L1023.9353778926766,333.60381707018007L1025.0049966589017,305.14687517380025L1027.1442341913516,306.6373181645587L1028.2138529575768,339.8281752398787L1030.353090490027,315.4739948960041L1031.422709256252,348.2993088293472L1032.4923280224768,341.48416456723754L1033.5619467887018,311.2130504658736L1034.631565554927,333.6187412236385L1035.7011843211521,326.46349720011756L1036.770803087377,313.9193846198914L1038.910040619827,331.03475882991194L1039.9796593860522,328.1926609010412L1041.049278152277,317.97743945719077L1042.118896918502,333.5203207050163L1043.1885156847272,356.1438252090706L1044.2581344509522,316.4272998525986L1045.3277532171774,328.27918154399833L1046.3973719834023,324.19127839978216L1048.5366095158524,344.1025316845709L1049.6062282820774,342.47034210854224L1050.6758470483023,305.76902171202465L1051.7454658145275,321.53714591028415L1052.8150845807525,298.70325686408484L1053.8847033469776,321.9668563376153L1054.9543221132026,328.5611625756421L1056.0239408794275,334.02905682599066L1057.0935596456525,340.0340233653337L1058.1631784118777,348.22317592315846L1059.2327971781028,302.7568410298636L1060.3024159443278,334.1543671189057L1061.3720347105527,332.19397765713086L1062.4416534767777,306.0808510505852L1063.5112722430028,318.4488980671038L1064.5808910092278,315.535137903565L1065.6505097754527,337.2650340648584L1066.720128541678,334.5527171004234L1067.7897473079029,333.7515464658675L1068.859366074128,331.36742938717873L1069.928984840353,312.6587209962569L1070.998603606578,318.6323928349559L1072.0682223728031,304.0578064423528L1073.137841139028,327.92856255547986L1074.2074599052532,314.74744502874023L1075.2770786714782,303.0298807184662L1076.3466974377031,319.57379791588534L1077.4163162039283,312.03065739278463L1078.4859349701533,294.24987632306113L1079.5555537363782,325.7608128293533L1081.6947912688283,312.067934903846L1082.7644100350535,304.90670806990784L1083.8340288012785,311.4517711760388L1084.9036475675034,318.4205618990836L1085.9732663337284,322.5695423056913L1087.0428850999535,299.241841291976L1089.1821226324037,335.25987214270833L1090.2517413986286,303.9608323174578L1091.3213601648536,300.59947904050546L1092.3909789310787,329.1340659819707L1093.4605976973037,301.576715238769L1096.6694539959788,310.7221970309816L1097.739072762204,315.83500162129104L1098.8086915284289,301.9511997237871L1099.8783102946538,319.0993807733484L1100.947929060879,333.303953352454L1102.017547827104,340.2921389004779L1103.087166593329,302.2570462519304L1104.1567853595539,326.15166786155703L1105.226404125779,339.0344338094673L1106.2960228920042,319.95275307242406L1107.3656416582292,323.5870802928095L1108.435260424454,318.43995672406265L1109.504879190679,327.04238341686346L1110.5744979569042,326.3903885717222L1111.6441167231292,314.1402226439742L1112.7137354893543,335.1151670248142L1113.7833542555793,328.74163306570085L1114.8529730218042,334.0186033440528L1115.9225917880294,334.257324054218L1116.9922105542544,303.61021332893927L1118.0618293204793,334.1305016224062L1119.1314480867045,322.3995252975704L1120.2010668529294,321.7758666204493L1121.2706856191546,335.26585495312554L1122.3403043853796,332.6489999746889" style="fill: none;" fill="none"></path></g></g></g></g></g></g><g transform="translate(58, 378)" clip-path="url(#clip_1)"><clipPath id="clip_1"><rect width="1207" height="21"></rect></clipPath><g><g><line x1="52.99658298594865" y1="0" x2="52.99658298594865" y2="5" style="visibility: inherit;" fill="rgb(0, 0, 0)" stroke="rgb(204, 204, 204)" stroke-width="1px"></line><line x1="205.7992638752389" y1="0" x2="205.7992638752389" y2="5" style="visibility: inherit;" fill="rgb(0, 0, 0)" stroke="rgb(204, 204, 204)" stroke-width="1px"></line><line x1="358.60194476452915" y1="0" x2="358.60194476452915" y2="5" style="visibility: inherit;" fill="rgb(0, 0, 0)" stroke="rgb(204, 204, 204)" stroke-width="1px"></line><line x1="511.4046256538193" y1="0" x2="511.4046256538193" y2="5" style="visibility: inherit;" fill="rgb(0, 0, 0)" stroke="rgb(204, 204, 204)" stroke-width="1px"></line><line x1="664.2073065431096" y1="0" x2="664.2073065431096" y2="5" style="visibility: inherit;" fill="rgb(0, 0, 0)" stroke="rgb(204, 204, 204)" stroke-width="1px"></line><line x1="817.0099874323998" y1="0" x2="817.0099874323998" y2="5" style="visibility: inherit;" fill="rgb(0, 0, 0)" stroke="rgb(204, 204, 204)" stroke-width="1px"></line><line x1="969.8126683216901" y1="0" x2="969.8126683216901" y2="5" style="visibility: inherit;" fill="rgb(0, 0, 0)" stroke="rgb(204, 204, 204)" stroke-width="1px"></line><line x1="1122.6153492109802" y1="0" x2="1122.6153492109802" y2="5" style="visibility: inherit;" fill="rgb(0, 0, 0)" stroke="rgb(204, 204, 204)" stroke-width="1px"></line></g><g transform="translate(0, 8)"><text x="52.99658298594865" y="0" dx="0em" dy="0.95em" style="text-anchor: middle; visibility: inherit; font-family: &quot;Helvetica Neue&quot;, sans-serif; font-size: 12px; font-weight: 200;" fill="rgb(50, 49, 63)" stroke="none" stroke-width="1px">0</text><text x="205.7992638752389" y="0" dx="0em" dy="0.95em" style="text-anchor: middle; visibility: inherit; font-family: &quot;Helvetica Neue&quot;, sans-serif; font-size: 12px; font-weight: 200;" fill="rgb(50, 49, 63)" stroke="none" stroke-width="1px">10k</text><text x="358.60194476452915" y="0" dx="0em" dy="0.95em" style="text-anchor: middle; visibility: inherit; font-family: &quot;Helvetica Neue&quot;, sans-serif; font-size: 12px; font-weight: 200;" fill="rgb(50, 49, 63)" stroke="none" stroke-width="1px">20k</text><text x="511.4046256538193" y="0" dx="0em" dy="0.95em" style="text-anchor: middle; visibility: inherit; font-family: &quot;Helvetica Neue&quot;, sans-serif; font-size: 12px; font-weight: 200;" fill="rgb(50, 49, 63)" stroke="none" stroke-width="1px">30k</text><text x="664.2073065431096" y="0" dx="0em" dy="0.95em" style="text-anchor: middle; visibility: inherit; font-family: &quot;Helvetica Neue&quot;, sans-serif; font-size: 12px; font-weight: 200;" fill="rgb(50, 49, 63)" stroke="none" stroke-width="1px">40k</text><text x="817.0099874323998" y="0" dx="0em" dy="0.95em" style="text-anchor: middle; visibility: inherit; font-family: &quot;Helvetica Neue&quot;, sans-serif; font-size: 12px; font-weight: 200;" fill="rgb(50, 49, 63)" stroke="none" stroke-width="1px">50k</text><text x="969.8126683216901" y="0" dx="0em" dy="0.95em" style="text-anchor: middle; visibility: inherit; font-family: &quot;Helvetica Neue&quot;, sans-serif; font-size: 12px; font-weight: 200;" fill="rgb(50, 49, 63)" stroke="none" stroke-width="1px">60k</text><text x="1122.6153492109802" y="0" dx="0em" dy="0.95em" style="text-anchor: middle; visibility: inherit; font-family: &quot;Helvetica Neue&quot;, sans-serif; font-size: 12px; font-weight: 200;" fill="rgb(50, 49, 63)" stroke="none" stroke-width="1px">70k</text></g><line x1="0" y1="0" x2="1207.74" y2="0" fill="rgb(0, 0, 0)" stroke="rgb(204, 204, 204)" stroke-width="1px"></line></g></g></g></g></svg>